{"glyphs":{"0":{"ha":688,"x_min":0,"x_max":0,"o":"m 344 -17 b 490 50 395 -17 443 5 b 635 486 587 142 635 318 b 596 739 635 574 623 658 b 344 989 541 907 437 989 b 200 924 294 989 247 968 b 52 486 102 833 52 654 b 91 235 52 399 65 315 b 344 -17 144 68 247 -17 z m 370 18 b 283 71 341 18 312 36 b 157 552 207 161 157 363 b 224 884 157 680 178 809 b 317 954 250 926 278 954 b 404 903 345 954 374 937 b 530 419 477 818 530 616 b 520 270 530 368 527 318 b 370 18 497 108 435 18 z "},"1":{"ha":688,"x_min":0,"x_max":0,"o":"m 538 0 l 538 34 l 473 34 b 404 193 427 34 404 87 l 404 972 l 370 972 b 148 853 354 922 280 882 l 148 819 l 214 819 b 294 732 267 819 294 790 l 294 193 b 224 34 294 87 271 34 l 159 34 l 159 0 z "},"2":{"ha":688,"x_min":0,"x_max":0,"o":"m 565 0 l 635 157 l 602 157 b 460 81 566 106 519 81 l 174 81 b 599 703 457 377 599 584 b 307 986 599 861 475 986 b 182 949 258 986 216 974 b 104 879 147 925 121 901 l 104 846 l 119 846 b 305 935 166 905 229 935 b 490 703 393 935 490 842 b 78 34 490 562 353 339 l 77 0 z "},"3":{"ha":688,"x_min":0,"x_max":0,"o":"m 289 -15 b 509 74 371 -15 444 15 b 607 273 574 133 607 199 b 538 463 607 345 584 408 b 406 553 492 517 448 547 b 578 760 526 608 578 682 b 334 986 578 916 469 986 b 179 954 258 986 179 972 l 179 846 l 208 846 b 329 952 208 909 269 952 b 479 761 434 940 479 857 b 436 619 479 701 465 653 b 338 537 408 585 375 557 l 338 524 b 458 424 398 503 438 469 b 488 284 478 378 488 331 b 443 94 488 210 473 146 b 295 15 412 41 363 15 b 90 139 182 15 90 60 l 56 139 l 56 71 b 289 -15 56 28 146 -15 z "},"4":{"ha":688,"x_min":0,"x_max":0,"o":"m 407 297 l 119 297 l 407 762 z m 600 0 l 600 34 l 549 34 b 500 113 516 34 500 60 l 500 229 l 607 229 l 677 387 l 644 387 b 500 297 612 317 568 297 l 500 972 l 477 972 l 29 253 l 29 229 l 407 229 l 407 115 b 352 34 407 61 389 34 l 300 34 l 300 0 z "},"5":{"ha":688,"x_min":0,"x_max":0,"o":"m 283 -15 b 503 74 365 -15 438 15 b 600 321 568 133 600 216 b 227 610 600 485 429 610 l 298 891 l 589 891 l 631 1008 l 597 1008 b 522 972 593 984 568 972 l 253 972 l 155 578 b 214 581 176 580 195 581 b 481 330 378 581 481 469 b 289 15 481 111 419 15 b 83 139 176 15 83 56 l 52 139 l 52 67 b 283 -15 52 27 142 -15 z "},"6":{"ha":688,"x_min":0,"x_max":0,"o":"m 378 7 b 222 111 317 7 265 42 b 157 318 179 180 157 249 b 317 557 157 458 237 557 b 463 469 369 557 418 528 b 531 242 509 410 531 334 b 378 7 531 113 474 7 z m 385 -17 b 635 282 494 -17 635 109 b 596 433 635 334 623 385 b 344 581 541 532 437 581 b 163 518 267 581 207 560 b 543 957 243 803 391 947 l 543 989 b 194 777 405 989 288 918 b 52 346 100 634 52 490 b 136 94 52 251 80 167 b 385 -17 192 20 275 -17 z "},"7":{"ha":688,"x_min":0,"x_max":0,"o":"m 496 0 l 496 34 l 416 34 b 371 121 386 34 371 63 b 622 939 371 275 454 547 l 623 972 l 135 972 l 65 815 l 99 815 b 229 891 125 866 169 891 l 500 891 b 311 123 382 513 320 256 b 262 34 311 64 295 34 l 217 34 l 217 0 z "},"8":{"ha":688,"x_min":0,"x_max":0,"o":"m 374 563 b 227 648 294 587 244 616 b 189 790 201 694 189 743 b 197 858 189 813 191 836 b 315 970 216 930 266 967 b 393 947 342 970 363 966 b 498 742 448 913 498 826 b 480 647 498 713 492 681 b 374 563 465 602 429 574 z m 378 4 b 283 34 344 4 319 9 b 161 262 216 79 173 172 b 159 286 160 270 159 278 b 197 426 159 328 172 374 b 320 532 228 488 269 523 b 477 429 397 509 449 474 b 530 235 514 368 530 300 b 520 149 530 205 527 176 b 378 4 498 57 439 7 z m 344 -17 b 490 22 395 -17 443 -4 b 635 273 586 75 635 176 b 596 419 635 324 623 372 b 431 550 557 487 501 527 b 587 760 524 580 587 667 b 554 873 587 800 576 838 b 344 986 509 949 422 986 b 224 957 302 986 263 977 b 101 760 143 916 101 836 b 256 550 101 663 163 585 b 200 526 237 544 218 536 b 52 273 102 473 52 370 b 91 129 52 222 65 174 b 344 -17 144 33 247 -17 z "},"9":{"ha":688,"x_min":0,"x_max":0,"o":"m 371 416 b 225 505 319 416 271 446 b 157 730 180 564 157 639 b 309 965 157 859 214 965 b 466 862 370 965 422 930 b 531 654 509 793 531 724 b 371 416 531 515 451 416 z m 144 -17 b 494 197 283 -17 399 54 b 635 627 588 338 635 482 b 552 880 635 722 608 806 b 303 989 496 953 413 989 b 52 690 193 989 52 864 b 92 541 52 638 65 588 b 344 391 146 440 250 391 b 524 454 421 391 481 412 b 144 16 444 170 297 26 z "}," ":{"ha":345,"x_min":0,"x_max":0,"o":""},"!":{"ha":456,"x_min":0,"x_max":0,"o":"m 237 222 l 292 925 b 235 987 292 966 273 987 b 179 925 198 987 179 966 l 212 222 z m 227 -3 b 246 10 231 -3 237 1 l 300 70 b 310 91 307 77 310 84 b 302 111 310 97 307 103 l 248 169 b 227 180 239 176 233 180 b 207 170 220 180 214 176 l 151 113 b 140 92 144 106 140 99 b 147 75 140 86 142 81 l 207 6 b 227 -3 213 0 219 -3 z "},"\"":{"ha":456,"x_min":0,"x_max":0,"o":"m 134 751 l 176 995 b 178 1018 178 1006 178 1015 b 123 1069 178 1051 158 1069 b 68 1017 87 1069 68 1050 b 71 995 68 1013 69 1005 l 113 751 z m 345 751 l 387 995 b 390 1018 389 1006 390 1015 b 334 1069 390 1051 370 1069 b 280 1017 299 1069 280 1050 b 283 995 280 1013 281 1005 l 325 751 z "},"#":{"ha":906,"x_min":0,"x_max":0,"o":"m 511 386 l 347 386 l 404 583 l 569 583 z m 459 0 l 554 320 l 744 320 l 764 387 l 575 387 l 631 583 l 807 583 l 827 649 l 651 649 l 747 972 l 684 972 l 588 649 l 424 649 l 519 972 l 456 972 l 361 649 l 161 649 l 142 583 l 342 583 l 283 387 l 100 387 l 79 320 l 264 320 l 170 0 l 232 0 l 328 320 l 491 320 l 397 0 z "},"$":{"ha":688,"x_min":0,"x_max":0,"o":"m 391 -174 l 391 -12 b 585 70 466 -4 530 23 b 665 273 638 117 665 184 b 391 576 665 433 603 495 l 391 943 b 484 916 420 939 451 930 b 598 795 533 896 571 855 l 631 795 l 562 986 l 528 986 b 500 956 520 966 511 956 b 487 960 496 956 492 957 b 391 983 454 972 422 980 l 391 1053 l 342 1053 l 342 985 b 77 732 189 971 77 877 b 342 459 77 590 151 519 l 342 28 b 224 58 309 28 270 38 b 120 211 177 77 142 128 l 87 211 l 87 -14 l 121 -14 b 149 17 128 7 137 17 b 161 13 153 17 157 16 b 342 -13 197 -3 257 -12 l 342 -174 z m 391 31 l 391 444 b 593 244 547 395 593 345 b 391 31 593 112 500 45 z m 342 592 b 186 669 261 618 210 644 b 149 772 161 694 149 728 b 342 945 149 871 233 940 z "},"%":{"ha":1092,"x_min":0,"x_max":0,"o":"m 304 475 b 436 510 350 475 394 487 b 567 732 524 557 567 646 b 532 862 567 778 555 821 b 304 989 482 947 389 989 b 176 956 260 989 217 979 b 42 732 87 910 42 819 b 77 605 42 688 54 645 b 304 475 125 519 218 475 z m 327 494 b 137 765 232 494 137 623 b 147 844 137 791 140 818 b 273 971 167 926 220 968 b 359 945 304 971 326 966 b 472 698 426 901 472 799 b 327 494 472 593 421 494 z m 260 -20 l 896 971 l 839 971 l 201 -20 z m 787 -14 b 919 20 833 -14 877 -2 b 1050 243 1006 68 1050 157 b 1015 372 1050 288 1038 331 b 787 500 965 458 871 500 b 659 467 743 500 700 490 b 525 243 570 420 525 330 b 559 115 525 198 536 155 b 787 -14 608 30 700 -14 z m 819 5 b 732 31 788 5 766 9 b 620 275 665 77 620 179 b 630 355 620 302 623 328 b 756 481 650 436 703 479 b 842 456 787 481 809 477 b 955 208 909 411 955 309 b 819 5 955 94 895 8 z "},"&":{"ha":1141,"x_min":0,"x_max":0,"o":"m 510 49 b 174 399 328 49 174 219 b 337 596 174 503 226 596 l 713 133 b 510 49 667 80 587 49 z m 456 -11 b 738 106 582 -11 680 43 b 851 17 776 58 814 28 b 945 0 888 5 920 0 l 1054 0 l 1124 157 l 1090 157 b 960 71 1068 107 1025 78 b 781 163 890 71 838 92 b 886 361 838 235 872 301 b 985 515 909 463 942 515 l 1046 515 l 1046 549 l 745 549 l 745 515 l 806 515 b 848 449 834 515 848 493 b 755 195 848 394 837 318 l 395 650 b 326 831 349 711 326 772 b 425 941 326 896 366 941 b 521 916 450 941 482 933 b 626 795 566 896 601 856 l 657 795 l 592 986 l 561 986 b 535 956 554 966 545 956 b 523 960 531 956 527 957 b 427 986 490 977 457 986 b 251 790 328 986 251 884 b 307 636 251 738 271 689 b 103 353 176 595 103 502 b 456 -11 103 142 245 -11 z "},"'":{"ha":235,"x_min":0,"x_max":0,"o":"m 134 751 l 176 995 b 178 1018 178 1006 178 1015 b 123 1069 178 1051 158 1069 b 68 1017 87 1069 68 1050 b 71 995 68 1013 69 1005 l 113 751 z "},"(":{"ha":514,"x_min":0,"x_max":0,"o":"m 475 -251 b 280 400 318 -31 280 109 b 475 1067 280 705 314 840 l 420 1067 b 171 408 273 904 173 671 b 420 -251 173 144 273 -88 z "},")":{"ha":514,"x_min":0,"x_max":0,"o":"m 94 -251 b 343 408 241 -88 341 144 b 94 1067 341 671 241 904 l 39 1067 b 234 415 195 848 234 710 b 39 -251 234 114 201 -22 z "},"*":{"ha":694,"x_min":0,"x_max":0,"o":"m 427 685 b 494 747 457 685 494 715 b 486 773 494 756 492 765 b 432 805 481 780 463 791 b 361 861 404 818 380 836 b 416 869 379 866 397 869 b 505 859 449 869 486 859 b 517 861 511 859 515 860 b 546 905 536 866 546 882 b 492 972 546 939 523 972 b 431 929 480 972 471 971 b 355 878 410 907 385 890 b 380 966 357 909 365 939 b 404 1027 396 997 404 1017 b 346 1071 404 1054 378 1071 b 288 1023 311 1071 288 1052 b 313 966 288 1015 296 996 b 338 878 328 939 336 909 b 262 928 309 889 283 906 b 199 972 224 968 213 972 b 148 904 173 972 148 939 b 180 859 148 882 161 864 b 189 857 182 858 185 857 b 278 868 206 857 241 868 b 332 861 296 868 314 865 b 261 805 313 837 289 818 b 197 749 202 777 197 766 b 265 686 197 719 235 686 b 302 705 281 686 292 692 b 315 766 307 711 311 732 b 347 850 319 795 330 823 b 378 765 363 823 374 795 b 393 701 383 730 388 709 b 427 685 401 692 412 685 z "},"+":{"ha":688,"x_min":0,"x_max":0,"o":"m 391 188 l 391 439 l 629 439 l 629 533 l 628 534 l 391 534 l 391 785 l 297 785 l 296 784 l 296 534 l 59 534 l 59 439 l 296 439 l 296 188 z "},",":{"ha":378,"x_min":0,"x_max":0,"o":"m 109 -205 b 252 28 173 -205 252 -70 b 161 175 252 108 201 175 l 81 90 l 81 62 b 168 -47 139 43 168 6 b 109 -176 162 -114 142 -157 z "},"-":{"ha":454,"x_min":0,"x_max":0,"o":"m 349 277 b 376 296 367 277 376 283 l 376 353 b 348 372 376 366 366 372 l 106 372 b 79 353 88 372 79 366 l 79 296 b 106 277 79 283 87 277 z "},".":{"ha":378,"x_min":0,"x_max":0,"o":"m 174 -3 b 193 10 178 -3 184 1 l 248 70 b 257 91 254 77 257 84 b 249 111 257 97 254 103 l 195 169 b 174 180 186 176 180 180 b 154 170 168 180 161 176 l 98 113 b 87 92 91 106 87 99 b 94 75 87 86 90 81 l 154 6 b 174 -3 160 0 166 -3 z "},"/":{"ha":386,"x_min":0,"x_max":0,"o":"m 63 -34 l 430 972 l 376 972 l 9 -34 z "},":":{"ha":378,"x_min":0,"x_max":0,"o":"m 174 -3 b 193 10 178 -3 184 1 l 248 70 b 257 91 254 77 257 84 b 249 111 257 97 254 103 l 195 169 b 174 180 186 176 180 180 b 154 170 168 180 161 176 l 98 113 b 87 92 91 106 87 99 b 94 75 87 86 90 81 l 154 6 b 174 -3 160 0 166 -3 z m 174 467 b 193 480 178 467 184 471 l 248 540 b 257 561 254 547 257 554 b 249 581 257 567 254 573 l 195 639 b 174 650 186 646 180 650 b 154 640 168 650 161 646 l 98 583 b 87 562 91 576 87 569 b 94 545 87 556 90 551 l 154 476 b 174 467 160 470 166 467 z "},";":{"ha":378,"x_min":0,"x_max":0,"o":"m 174 466 b 193 479 178 466 184 471 l 248 539 b 257 560 254 547 257 553 b 249 580 257 566 254 572 l 195 638 b 174 649 186 646 180 649 b 154 640 168 649 161 646 l 98 583 b 87 562 91 575 87 568 b 94 544 87 555 90 550 l 154 475 b 174 466 160 469 166 466 z m 109 -205 b 252 28 173 -205 252 -70 b 161 175 252 108 201 175 l 81 90 l 81 62 b 168 -47 139 43 168 6 b 109 -176 162 -114 142 -157 z "},"<":{"ha":688,"x_min":0,"x_max":0,"o":"m 629 131 l 629 244 l 205 485 l 629 728 l 629 842 l 59 513 l 59 457 z "},"=":{"ha":688,"x_min":0,"x_max":0,"o":"m 629 333 l 629 428 l 59 428 l 59 333 z m 629 545 l 629 640 l 59 640 l 59 545 z "},">":{"ha":688,"x_min":0,"x_max":0,"o":"m 59 131 l 629 457 l 629 513 l 59 842 l 59 728 l 483 485 l 59 244 z "},"?":{"ha":507,"x_min":0,"x_max":0,"o":"m 238 230 b 214 358 222 287 214 330 b 345 582 214 418 262 477 b 452 803 425 682 452 739 b 254 972 452 909 370 972 b 90 902 202 972 147 949 l 90 859 b 210 913 132 895 172 913 b 330 794 288 913 330 866 b 252 585 330 746 304 676 b 172 373 199 493 172 422 b 206 230 172 340 184 292 z m 227 -3 b 246 10 231 -3 237 1 l 300 70 b 310 91 307 77 310 84 b 302 111 310 97 307 103 l 248 169 b 227 180 239 176 233 180 b 207 170 220 180 214 176 l 151 113 b 140 92 144 106 140 99 b 147 75 140 86 142 81 l 207 6 b 227 -3 213 0 219 -3 z "},"@":{"ha":1369,"x_min":0,"x_max":0,"o":"m 678 42 b 554 101 625 42 583 62 b 511 233 525 140 511 184 b 557 368 511 291 526 336 b 659 422 587 399 622 417 b 764 478 705 431 739 450 l 764 155 b 678 42 751 82 722 44 z m 696 -283 b 1083 -159 835 -283 964 -242 l 1083 -108 b 693 -249 947 -202 817 -249 b 477 -186 629 -249 557 -228 b 271 11 398 -145 329 -79 b 182 357 212 100 182 216 b 228 602 182 440 197 522 b 677 937 304 806 495 937 b 1160 443 939 937 1142 744 b 1104 184 1160 340 1141 254 b 923 54 1067 113 1006 69 b 859 133 880 54 859 80 l 859 532 b 671 683 859 622 766 681 b 501 642 575 683 501 661 l 501 534 l 532 534 b 648 659 532 594 581 659 b 736 621 689 659 718 646 b 764 536 753 596 763 568 b 660 457 764 492 720 471 b 543 424 618 451 578 439 b 416 233 468 391 417 311 b 667 6 416 109 538 6 b 812 68 740 6 787 35 b 922 20 833 37 863 20 b 1157 135 1000 20 1078 59 b 1276 433 1236 212 1276 311 b 1109 817 1276 585 1221 713 b 696 972 997 920 859 972 b 387 892 589 972 486 945 b 68 345 177 779 68 555 b 151 32 68 235 96 131 b 696 -283 266 -176 488 -283 z "},"A":{"ha":501,"x_min":0,"x_max":0,"o":"m 469 31 b 471 32 470 31 471 31 l 471 902 l 470 918 b 403 970 460 952 437 970 l 68 970 l 52 969 b 0 902 18 959 0 937 l 0 98 l 1 83 b 68 31 11 48 33 31 l 135 31 b 136 32 136 31 136 31 l 136 499 l 335 499 l 335 94 b 405 31 335 60 361 31 z m 499 0 b 500 1 500 0 500 1 l 501 909 b 458 966 501 940 473 966 l 458 965 b 484 907 475 948 484 928 l 484 17 l 398 17 b 340 43 376 17 357 26 l 338 43 b 401 0 343 23 364 0 z m 335 657 l 136 657 l 136 811 l 335 811 z m 165 671 b 167 672 167 671 167 671 l 167 781 l 319 781 b 321 783 320 781 321 781 l 321 796 b 319 798 321 798 320 798 l 152 798 b 151 796 151 798 151 798 l 151 672 b 152 671 151 671 151 671 z m 165 0 b 167 1 167 0 167 1 l 167 469 l 319 469 b 321 470 320 469 321 469 l 321 484 b 319 486 321 485 320 486 l 152 486 b 151 484 151 486 151 485 l 151 17 l 65 17 b 6 43 43 17 23 26 l 5 43 b 69 0 7 26 28 0 z "},"B":{"ha":501,"x_min":0,"x_max":0,"o":"m 469 31 b 470 33 469 31 470 32 l 470 475 b 435 578 470 509 458 544 l 435 579 b 470 682 458 614 470 648 l 470 908 b 410 970 470 944 438 970 l 60 970 l 47 968 b 0 908 16 956 0 936 l 0 93 b 60 31 0 57 32 31 z m 500 0 b 501 1 500 0 501 1 l 501 474 b 472 578 501 509 492 543 b 501 683 492 614 501 649 l 501 908 b 458 966 501 934 484 958 l 458 965 b 484 901 475 949 484 927 l 484 697 b 452 579 484 651 473 612 l 452 578 b 484 460 473 545 484 507 l 484 17 l 73 17 b 5 45 42 17 20 26 b 3 43 3 44 3 45 b 62 0 16 14 35 0 z m 267 657 l 136 657 l 136 812 l 334 812 l 334 726 b 267 657 334 681 309 657 z m 165 671 b 167 673 167 671 167 672 l 167 781 l 319 781 b 320 783 319 781 320 781 l 320 796 b 319 798 320 798 319 798 l 151 798 b 150 796 151 798 150 798 l 150 673 b 151 671 150 672 151 671 z m 334 189 l 136 189 l 136 500 l 267 500 b 334 432 311 500 334 475 z m 165 203 b 167 205 167 203 167 203 l 167 469 l 267 469 b 317 449 289 469 306 462 l 319 450 l 319 451 b 275 486 309 474 294 486 l 151 486 b 150 484 151 486 150 485 l 150 205 b 151 203 150 203 151 203 z "},"C":{"ha":501,"x_min":0,"x_max":0,"o":"m 469 31 b 470 33 469 31 470 32 l 470 344 b 469 345 470 345 469 345 l 395 345 b 334 284 359 345 334 313 l 334 189 l 136 189 l 136 812 l 334 812 l 334 657 b 336 656 334 656 334 656 l 469 656 b 470 657 469 656 470 656 l 470 909 b 409 970 470 945 438 970 l 61 970 b 0 909 25 970 0 938 l 0 92 b 61 31 0 56 32 31 z m 500 625 b 501 626 500 625 501 625 l 501 909 b 459 966 501 935 487 954 b 458 965 458 966 458 966 b 484 902 475 949 484 928 l 484 642 l 351 642 b 350 640 351 642 350 642 l 350 626 b 351 625 350 625 350 625 z m 165 203 b 167 205 167 203 167 203 l 167 781 l 319 781 b 320 783 319 781 320 781 l 320 796 b 319 798 320 798 319 798 l 151 798 b 150 796 151 798 150 798 l 150 205 b 151 203 150 203 151 203 z m 500 0 b 501 1 500 0 501 1 l 501 328 b 500 330 501 329 500 330 l 486 330 b 484 328 485 330 484 329 l 484 17 l 68 17 b 5 43 41 17 20 26 b 3 42 3 43 3 44 b 61 0 16 14 35 0 z "},"D":{"ha":501,"x_min":0,"x_max":0,"o":"m 469 31 b 470 33 469 31 470 32 l 470 785 b 436 890 470 821 458 856 b 286 970 395 943 345 970 l 60 970 b 0 909 30 970 0 941 l 0 92 b 60 31 0 61 28 31 z m 500 0 b 501 1 500 0 501 1 l 501 785 b 492 840 501 802 498 820 b 396 951 475 890 442 928 l 395 951 l 395 949 b 484 773 454 907 484 848 l 484 17 l 68 17 b 5 45 42 17 20 26 l 3 43 b 7 35 3 42 5 39 b 60 0 21 12 39 0 z m 332 189 l 138 189 b 136 191 136 189 136 189 l 136 810 b 138 812 136 811 136 812 l 250 812 b 334 719 297 812 334 786 l 334 191 b 332 189 334 189 334 189 z m 165 203 b 167 205 167 203 167 203 l 167 779 b 169 781 167 780 168 781 l 250 781 b 315 753 277 781 300 772 l 316 753 l 316 754 l 315 758 b 257 798 302 785 283 798 l 151 798 b 150 796 151 798 150 798 l 150 205 b 151 203 150 203 151 203 z "},"E":{"ha":501,"x_min":0,"x_max":0,"o":"m 469 31 b 471 32 470 31 471 31 l 471 187 b 469 189 471 189 470 189 l 136 189 l 136 499 l 335 499 b 336 500 336 499 336 499 l 336 656 b 335 657 336 656 336 657 l 136 657 l 136 811 l 469 811 b 471 813 470 811 471 812 l 471 891 b 468 924 471 907 470 918 b 407 970 455 955 435 970 l 65 970 b 47 968 58 970 52 969 b 0 905 16 956 0 935 l 0 94 b 77 31 0 63 20 31 z m 165 671 b 167 672 167 671 167 671 l 167 781 l 500 781 b 501 783 500 781 501 781 l 501 907 b 458 966 501 935 487 954 l 456 965 b 484 903 475 948 484 928 l 484 798 l 151 798 b 150 796 151 798 150 798 l 150 672 b 151 671 150 671 151 671 z m 165 202 b 167 204 167 202 167 203 l 167 469 l 319 469 b 321 470 320 469 321 469 l 321 484 b 319 486 321 485 320 486 l 151 486 b 150 484 151 486 150 485 l 150 204 b 151 202 150 203 151 202 z m 500 0 b 501 1 500 0 501 1 l 501 172 b 500 174 501 173 500 173 l 486 174 b 484 172 485 174 484 173 l 484 17 l 66 17 b 5 45 42 17 21 26 l 3 43 b 63 0 16 14 35 0 z "},"F":{"ha":501,"x_min":0,"x_max":0,"o":"m 135 31 b 136 32 136 31 136 31 l 136 499 l 335 499 b 336 500 336 499 336 499 l 336 656 b 335 657 336 656 336 657 l 136 657 l 136 811 l 469 811 b 471 813 470 811 471 812 l 471 891 b 468 924 471 907 470 918 b 407 970 455 955 435 970 l 65 970 b 47 968 58 970 52 969 b 0 905 16 956 0 935 l 0 94 b 77 31 0 63 20 31 z m 165 671 b 167 672 167 671 167 671 l 167 781 l 500 781 b 501 783 500 781 501 781 l 501 907 b 458 966 501 935 487 954 l 456 965 b 484 903 475 948 484 928 l 484 798 l 151 798 b 150 796 151 798 150 798 l 150 672 b 151 671 150 671 151 671 z m 165 0 b 167 1 167 0 167 1 l 167 469 l 319 469 b 321 470 320 469 321 469 l 321 484 b 319 486 321 485 320 486 l 151 486 b 150 484 151 486 150 485 l 150 17 l 66 17 b 5 45 42 17 21 26 l 3 43 b 63 0 16 14 35 0 z "},"G":{"ha":503,"x_min":0,"x_max":0,"o":"m 469 31 b 471 33 470 31 471 32 l 471 655 b 469 657 471 656 470 657 l 296 657 b 249 634 278 657 262 650 b 234 580 239 625 234 607 l 234 501 b 235 499 234 500 235 499 l 334 499 l 334 189 l 136 189 l 136 812 l 469 812 b 471 813 470 812 471 812 l 471 906 b 411 969 471 943 442 969 l 62 969 b 18 949 45 969 31 962 b 0 892 6 940 0 921 l 0 108 b 6 68 0 87 2 74 b 62 31 19 43 37 31 z m 166 203 b 168 204 168 203 168 203 l 168 781 l 500 781 b 502 782 501 781 502 781 l 502 836 l 503 867 b 502 895 502 871 502 880 l 502 906 b 458 966 502 935 483 958 l 458 964 b 484 910 475 947 484 929 l 484 798 l 151 798 b 150 796 151 798 150 797 l 150 204 b 151 203 150 203 151 203 z m 500 0 b 502 1 501 0 502 1 l 502 686 l 501 688 l 326 689 b 267 680 292 689 273 686 b 238 646 254 674 244 662 l 238 644 l 239 644 b 307 671 254 662 277 671 l 484 671 l 484 17 l 68 17 b 6 43 41 17 20 26 l 4 43 b 5 40 4 42 4 41 b 62 0 18 14 37 0 z "},"H":{"ha":501,"x_min":0,"x_max":0,"o":"m 469 31 b 470 33 469 31 470 32 l 470 908 b 468 924 470 913 469 919 b 408 970 455 955 435 970 l 336 970 b 334 968 335 970 334 969 l 334 657 l 136 657 l 136 968 b 135 970 136 969 136 970 l 62 970 b 45 968 56 970 51 969 b 0 908 15 955 0 935 l 0 93 b 2 77 0 87 1 82 b 62 31 15 46 35 31 l 135 31 b 136 33 136 31 136 32 l 136 500 l 334 500 l 334 104 b 336 77 334 94 335 85 b 397 31 349 47 369 31 z m 500 0 b 501 1 500 0 501 1 l 501 908 b 458 966 501 939 473 965 l 458 965 b 484 902 475 949 484 928 l 484 17 l 403 17 b 340 45 376 17 355 26 l 338 43 l 340 38 b 397 0 353 13 372 0 z m 166 671 b 168 673 168 671 168 672 l 168 953 b 166 954 168 954 168 954 l 151 954 b 150 953 151 954 150 954 l 150 673 b 151 671 150 672 151 671 z m 166 0 b 168 1 168 0 168 1 l 168 469 l 319 469 b 321 470 320 469 321 469 l 321 484 b 319 486 321 485 320 486 l 151 486 b 150 484 151 486 150 485 l 150 17 l 68 17 b 5 43 42 17 21 26 l 3 43 l 4 41 b 62 0 17 14 37 0 z "},"I":{"ha":167,"x_min":0,"x_max":0,"o":"m 134 31 b 136 33 135 31 136 32 l 136 907 b 134 924 136 913 135 918 b 61 968 117 964 97 968 b 0 907 24 968 0 937 l 0 92 b 61 31 0 56 32 31 z m 165 0 b 167 1 166 0 167 1 l 167 907 b 124 965 167 932 152 956 l 123 965 l 123 964 b 150 901 141 948 150 927 l 150 17 l 68 17 b 5 43 41 17 20 26 l 3 43 b 4 41 3 43 3 41 b 61 0 16 14 35 0 z "},"J":{"ha":501,"x_min":0,"x_max":0,"o":"m 469 31 b 470 33 469 31 470 32 l 470 909 b 409 970 470 945 438 970 l 336 970 b 334 968 335 970 334 969 l 334 189 l 136 189 l 136 344 b 134 345 136 345 136 345 l 61 345 b 0 284 25 345 0 313 l 0 94 b 62 31 0 64 26 31 z m 500 0 b 501 1 500 0 501 1 l 501 909 b 458 966 501 933 486 957 l 458 966 l 458 965 b 484 902 475 949 484 928 l 484 17 l 69 17 b 5 45 42 17 21 26 b 3 43 3 44 3 45 b 62 0 16 14 36 0 z m 165 203 b 167 205 167 203 167 203 l 167 328 b 165 330 167 329 167 330 l 151 330 b 150 328 151 330 150 329 l 150 205 b 151 203 150 203 151 203 z "},"K":{"ha":501,"x_min":0,"x_max":0,"o":"m 469 31 b 470 33 469 31 470 32 l 470 473 b 435 578 470 509 458 544 l 435 579 b 470 682 458 614 470 648 l 470 908 b 408 970 470 945 437 970 l 336 970 b 334 968 335 970 334 969 l 334 726 b 332 705 334 715 334 708 b 265 657 323 673 300 657 l 138 657 b 136 659 136 657 136 658 l 136 968 b 134 970 136 969 136 970 l 62 970 b 0 908 25 970 0 937 l 0 93 b 62 31 0 62 27 31 l 134 31 b 136 33 136 31 136 32 l 136 500 l 270 500 b 334 432 305 500 334 475 l 334 102 b 394 31 334 53 366 31 z m 500 0 b 501 1 500 0 501 1 l 501 473 b 472 578 501 509 492 544 b 501 683 492 614 501 649 l 501 908 b 458 966 501 932 485 958 l 458 965 b 484 901 475 949 484 928 l 484 697 b 452 579 484 651 473 612 l 452 578 b 484 460 473 546 484 507 l 484 17 l 405 17 b 340 45 376 17 354 26 l 338 43 l 340 38 b 397 0 353 13 372 0 z m 165 671 b 167 673 167 671 167 672 l 167 953 b 165 954 167 954 167 954 l 151 954 b 150 953 151 954 150 954 l 150 673 b 151 671 150 672 151 671 z m 165 0 b 167 1 167 0 167 1 l 167 469 l 267 469 b 317 450 288 469 304 463 l 319 450 l 319 450 b 275 486 310 474 295 486 l 151 486 b 150 484 151 486 150 485 l 150 19 b 149 17 150 18 149 17 l 77 17 b 5 45 37 17 18 27 l 3 43 b 62 0 15 14 35 0 z "},"L":{"ha":501,"x_min":0,"x_max":0,"o":"m 469 31 b 470 32 469 31 470 31 l 470 127 b 404 189 470 159 444 189 l 136 189 l 136 968 b 134 970 136 969 136 970 l 67 970 b 46 968 59 970 52 969 b 0 908 16 956 0 936 l 0 32 b 1 31 0 31 1 31 z m 165 201 b 166 203 165 201 166 202 l 166 952 b 165 954 166 953 165 954 l 151 954 b 149 952 150 954 149 953 l 149 203 b 151 201 149 202 150 201 z m 500 0 b 501 1 500 0 501 1 l 501 128 b 487 167 501 142 496 155 b 458 186 474 179 464 185 l 456 185 b 484 120 475 168 484 147 l 484 18 l 18 18 b 16 16 17 18 16 18 l 16 1 b 18 0 16 1 17 0 z "},"M":{"ha":501,"x_min":0,"x_max":0,"o":"m 469 31 b 470 32 469 31 470 31 l 470 910 b 468 925 470 914 469 919 b 404 970 456 955 435 970 l 335 970 b 236 784 333 967 300 905 l 234 784 l 156 932 b 134 970 142 958 135 970 l 68 970 b 0 909 20 970 0 936 l 0 94 l 1 83 b 68 31 10 48 33 31 l 134 31 b 136 32 136 31 136 31 l 136 683 b 235 500 138 680 227 512 b 239 505 235 500 237 502 b 334 683 301 623 333 683 l 334 92 b 401 31 334 56 365 31 z m 236 814 l 236 847 b 170 970 195 924 174 965 l 153 970 l 151 969 b 233 814 203 871 231 820 z m 500 0 b 501 1 500 0 501 1 l 501 908 b 492 941 501 918 498 928 b 455 966 475 960 465 966 l 455 966 b 484 902 474 950 484 929 l 484 18 l 396 18 b 338 45 374 18 355 27 l 336 45 b 353 17 338 37 343 28 b 403 0 361 5 378 0 z m 164 0 b 165 1 165 0 165 1 l 165 564 b 218 467 170 557 188 524 l 220 467 l 228 484 l 151 629 l 149 629 l 149 18 l 63 18 b 4 46 41 18 21 27 l 2 45 b 68 0 14 14 33 0 z "},"N":{"ha":501,"x_min":0,"x_max":0,"o":"m 469 31 b 470 33 469 31 470 32 l 470 909 b 410 970 470 940 441 970 l 336 970 b 334 968 335 970 334 969 l 334 723 l 135 970 l 60 970 b 0 909 30 970 0 941 l 0 92 b 60 31 0 61 28 31 l 134 31 b 136 33 136 31 136 32 l 136 747 l 334 500 l 334 92 b 394 31 334 61 363 31 z m 319 764 b 320 765 319 764 320 764 l 320 789 b 175 970 227 907 178 967 l 155 970 l 154 969 z m 500 0 b 501 1 500 0 501 1 l 501 909 b 495 935 501 916 499 925 b 458 966 486 950 474 961 b 456 965 457 966 457 966 b 484 901 475 949 484 928 l 484 17 l 403 17 b 339 45 376 17 355 26 l 337 43 l 341 34 b 394 0 356 12 374 0 z m 165 0 b 167 1 167 0 167 1 l 167 657 b 303 489 168 656 214 600 b 304 490 304 489 304 490 l 304 515 l 151 706 b 150 705 151 706 150 705 l 150 17 l 68 17 b 5 45 42 17 20 26 l 3 43 l 7 34 b 60 0 22 12 39 0 z "},"O":{"ha":501,"x_min":0,"x_max":0,"o":"m 408 31 b 470 93 445 31 470 64 l 470 908 b 408 970 470 945 437 970 l 62 970 b 0 908 25 970 0 937 l 0 93 b 62 31 0 56 33 31 z m 410 0 b 501 92 457 0 501 42 l 501 908 b 455 966 501 941 472 966 l 455 966 b 484 903 474 950 484 929 l 484 98 b 406 18 484 47 446 18 l 66 18 b 4 46 41 18 20 27 l 3 46 l 3 42 b 62 0 16 14 36 0 z m 334 189 l 136 189 l 136 810 b 138 812 136 811 136 812 l 332 812 b 334 810 334 812 334 812 z m 165 202 b 167 204 167 202 167 203 l 167 779 b 169 781 167 780 168 781 l 319 781 b 321 783 320 781 321 781 l 321 798 b 319 799 321 798 320 799 l 151 799 b 149 798 150 799 149 798 l 149 204 b 151 202 149 203 150 202 z "},"P":{"ha":502,"x_min":0,"x_max":0,"o":"m 135 32 b 136 33 136 32 136 33 l 136 499 l 404 499 b 425 503 412 499 419 500 b 470 565 455 514 470 535 l 470 905 l 469 921 b 402 969 458 953 436 969 l 68 969 b 48 968 62 969 56 968 b 0 901 16 957 0 935 l 0 100 b 3 77 0 90 1 83 b 64 32 15 47 35 32 z m 168 0 l 168 1 l 168 467 l 399 467 b 502 560 466 467 502 515 l 501 891 b 460 965 501 934 489 954 l 459 965 l 459 964 b 484 907 475 947 484 928 l 484 562 b 407 486 484 517 447 486 l 152 486 b 151 484 151 486 151 485 l 151 18 l 62 18 b 5 43 41 18 22 26 l 5 43 l 5 41 b 80 1 21 5 42 1 z m 334 658 l 136 658 l 136 811 l 334 811 z m 167 671 b 168 673 168 671 168 672 l 168 779 l 318 779 b 319 781 319 779 319 779 l 319 795 b 318 797 319 796 319 797 l 152 797 b 151 795 151 797 151 796 l 151 673 b 152 671 151 672 151 671 z "},"Q":{"ha":635,"x_min":0,"x_max":0,"o":"m 603 31 b 604 33 604 31 604 32 l 604 187 b 603 189 604 189 604 189 l 533 189 b 515 191 526 189 520 190 b 470 255 485 201 470 223 l 470 908 b 468 924 470 913 469 919 b 408 970 455 955 435 970 l 62 970 b 0 908 25 970 0 938 l 0 93 b 62 31 0 64 26 31 l 408 31 b 442 41 419 31 431 35 b 469 81 460 57 469 70 b 474 68 473 81 470 76 b 530 31 487 43 506 31 z m 634 0 b 635 1 635 0 635 1 l 635 218 b 634 220 635 220 635 220 l 533 220 b 501 252 514 220 503 231 l 501 908 b 458 966 501 932 485 958 l 458 965 b 484 901 475 949 484 927 l 484 248 b 486 237 484 245 484 241 b 528 203 496 214 510 203 l 618 203 l 618 17 l 537 17 b 473 43 511 17 489 26 l 471 43 l 472 41 b 530 0 485 14 505 0 z m 334 189 l 136 189 l 136 812 l 332 812 b 334 810 334 812 334 812 z m 165 203 b 167 205 167 203 167 203 l 167 781 l 319 781 b 320 783 319 781 320 781 l 320 796 b 319 798 320 798 319 798 l 151 798 b 150 796 151 798 150 798 l 150 205 b 151 203 150 203 151 203 z m 410 0 b 439 8 418 0 427 3 b 467 45 458 22 467 35 l 466 45 b 401 17 450 26 428 17 l 68 17 b 5 43 42 17 21 26 l 3 43 l 4 41 b 62 0 17 14 36 0 z "},"R":{"ha":501,"x_min":0,"x_max":0,"o":"m 469 31 b 470 33 469 31 470 32 l 470 473 b 435 578 470 509 458 544 l 435 579 b 470 682 458 614 470 648 l 470 908 b 408 970 470 945 437 970 l 62 970 b 0 908 25 970 0 937 l 0 93 b 62 31 0 62 27 31 l 134 31 b 136 33 136 31 136 32 l 136 500 l 270 500 b 334 432 305 500 334 475 l 334 102 b 394 31 334 53 366 31 z m 500 0 b 501 1 500 0 501 1 l 501 473 b 472 578 501 509 492 544 b 501 683 492 614 501 649 l 501 908 b 458 966 501 932 485 958 l 458 965 b 484 901 475 949 484 928 l 484 697 b 452 579 484 651 473 612 l 452 578 b 484 460 473 546 484 507 l 484 17 l 405 17 b 340 45 376 17 354 26 l 338 43 l 340 38 b 397 0 353 13 372 0 z m 265 657 l 138 657 b 136 659 136 657 136 658 l 136 810 b 138 812 136 811 136 812 l 332 812 b 334 810 334 812 334 812 l 334 726 b 332 705 334 715 334 708 b 265 657 323 673 300 657 z m 165 671 b 167 673 167 671 167 672 l 167 780 l 319 780 b 320 782 319 780 320 781 l 320 796 b 319 798 320 798 319 798 l 151 798 b 150 796 151 798 150 798 l 150 673 b 151 671 150 672 151 671 z m 165 0 b 167 1 167 0 167 1 l 167 469 l 267 469 b 317 450 288 469 304 463 l 319 450 l 319 450 b 275 486 310 474 295 486 l 151 486 b 150 484 151 486 150 485 l 150 19 b 149 17 150 18 149 17 l 77 17 b 5 45 37 17 18 27 l 3 43 b 62 0 15 14 35 0 z "},"S":{"ha":501,"x_min":0,"x_max":0,"o":"m 469 31 b 470 32 469 31 470 31 l 470 595 b 468 612 470 600 469 606 b 402 657 456 642 434 657 l 136 657 l 136 811 l 469 811 b 470 813 469 811 470 812 l 470 907 b 468 924 470 912 469 918 b 402 970 456 955 434 970 l 68 970 b 0 907 25 970 0 939 l 0 562 b 2 545 0 557 1 551 b 68 499 14 514 36 499 l 334 499 l 334 189 l 1 189 b 0 187 1 189 0 189 l 0 93 b 2 76 0 88 1 82 b 68 31 14 45 36 31 z m 166 672 b 168 674 168 672 168 673 l 168 779 l 376 779 l 500 780 l 501 782 l 501 909 b 460 965 501 930 484 957 l 459 965 l 459 964 b 485 901 476 948 485 926 l 485 796 l 152 796 b 151 795 151 796 151 796 l 151 674 b 152 672 151 673 151 672 z m 500 0 l 501 1 l 501 595 b 459 653 501 624 475 653 l 459 652 b 485 588 476 635 485 614 l 485 16 l 62 16 b 5 42 41 16 22 25 l 4 41 l 5 37 b 62 1 19 14 37 1 b 500 0 151 1 297 1 z m 319 468 b 320 469 319 468 320 468 l 320 484 l 319 485 l 60 486 b 5 512 41 486 22 494 l 3 512 b 68 468 14 483 36 468 z "},"T":{"ha":501,"x_min":0,"x_max":0,"o":"m 301 31 b 303 33 302 31 303 32 l 303 812 l 469 812 b 470 814 469 812 470 812 l 470 909 b 464 935 470 916 468 924 b 410 970 449 958 431 970 l 60 970 b 35 964 54 970 45 968 b 0 909 12 949 0 931 l 0 814 b 1 812 0 812 1 812 l 167 812 l 167 91 b 227 31 167 62 195 31 z m 332 0 b 334 1 334 0 334 1 l 334 781 l 500 781 b 501 783 500 781 501 781 l 501 909 b 458 966 501 930 486 956 b 456 965 457 966 457 966 b 484 901 475 949 484 928 l 484 798 l 319 798 b 317 796 317 798 317 798 l 317 17 l 235 17 b 172 43 209 17 188 26 l 170 43 l 172 38 b 227 0 185 13 203 0 z m 151 781 b 153 783 153 781 153 781 l 153 796 b 151 798 153 798 153 798 l 17 798 b 16 796 16 798 16 798 l 16 783 b 17 781 16 781 16 781 z "},"U":{"ha":501,"x_min":0,"x_max":0,"o":"m 469 31 b 471 32 470 31 471 31 l 471 902 b 401 970 471 939 446 970 l 355 970 b 334 968 341 970 334 969 l 334 189 l 136 189 l 136 968 b 117 970 136 969 130 970 l 71 970 b 52 968 62 970 56 969 b 0 902 17 959 0 937 l 0 98 b 5 71 0 87 1 78 b 64 31 18 44 37 31 z m 500 0 b 501 1 500 0 501 1 l 501 903 b 456 966 501 935 486 957 l 455 966 b 484 908 474 948 484 929 l 484 18 l 61 18 b 5 45 40 18 22 27 l 3 45 l 3 45 b 65 0 14 15 34 0 z m 165 201 b 167 203 167 201 167 202 l 167 952 b 165 954 167 953 167 954 l 151 954 b 149 952 150 954 149 953 l 149 203 b 151 201 149 202 150 201 z "},"V":{"ha":501,"x_min":0,"x_max":0,"o":"m 213 31 l 236 31 l 305 31 l 307 32 b 470 892 420 628 470 879 b 440 947 470 916 463 932 b 348 970 440 952 410 960 b 343 953 347 970 346 964 l 236 384 l 234 384 b 123 970 225 433 188 629 b 42 954 78 962 52 957 b 0 895 14 941 0 921 b 19 790 0 886 2 873 b 153 87 106 327 151 92 b 170 52 153 77 159 64 b 213 31 184 37 199 31 z m 235 460 b 243 500 236 460 239 473 b 156 960 243 503 214 656 b 139 958 148 960 142 958 b 221 530 193 673 220 531 b 235 460 229 484 234 460 z m 332 0 b 439 564 334 6 370 194 b 501 892 481 776 501 885 b 458 954 501 915 489 943 l 456 954 l 456 953 b 484 892 475 935 484 916 b 317 17 484 882 425 576 l 216 17 b 157 45 194 17 174 26 l 156 45 l 156 42 b 214 0 169 14 188 0 z "},"W":{"ha":501,"x_min":0,"x_max":0,"o":"m 469 31 b 470 33 469 31 470 32 l 470 909 b 409 970 470 945 438 970 l 336 970 b 334 968 335 970 334 969 l 334 317 l 334 317 l 236 501 l 234 500 b 136 317 137 319 138 317 l 136 968 b 134 970 136 969 136 970 l 62 970 b 0 907 33 970 0 943 l 0 94 b 62 31 0 64 26 31 l 136 31 l 235 216 l 236 216 b 335 31 298 99 331 37 z m 500 0 b 501 1 500 0 501 1 l 501 909 b 459 966 501 935 487 954 b 458 965 458 966 458 966 b 484 902 475 949 484 928 l 484 17 l 342 17 l 342 16 b 351 0 347 6 350 1 z m 151 375 b 167 406 162 393 167 404 l 167 953 b 165 954 167 954 167 954 l 151 954 b 150 953 151 954 150 954 l 150 376 b 151 375 151 375 150 375 z m 319 375 b 320 376 319 375 320 375 l 320 408 b 262 517 320 410 300 447 b 252 500 260 516 256 510 z m 155 0 b 236 154 209 101 236 153 l 236 185 l 235 186 b 222 165 234 186 230 180 b 143 17 172 69 145 20 l 69 17 b 5 45 43 17 21 26 b 3 43 3 44 3 45 b 62 0 16 14 36 0 z "},"X":{"ha":500,"x_min":0,"x_max":0,"o":"m 468 32 b 469 33 469 32 469 33 l 469 427 b 410 578 469 481 450 532 b 469 729 450 626 469 676 l 469 907 b 445 956 469 926 461 942 b 391 970 436 965 418 970 l 335 970 b 334 968 334 970 334 969 l 334 757 b 311 694 334 734 326 713 b 229 658 283 663 262 658 b 136 757 183 658 136 701 l 136 968 b 134 970 136 969 135 970 l 78 970 b 45 966 62 970 51 968 b 0 907 15 954 0 935 l 0 729 b 59 578 0 676 20 626 b 0 427 20 532 0 481 l 0 94 b 62 32 0 57 33 32 l 134 32 b 136 33 135 32 136 33 l 136 400 b 234 500 136 454 179 500 b 334 400 290 500 334 457 l 334 97 b 397 32 334 56 366 32 z m 440 0 l 454 1 l 499 1 b 500 2 500 1 500 1 l 500 427 b 450 579 500 479 484 531 b 500 730 484 626 500 677 l 500 907 b 458 966 500 933 486 953 l 456 965 b 484 901 474 949 484 927 l 484 745 b 428 578 484 680 465 624 b 484 412 465 534 484 478 l 484 20 b 481 18 484 18 483 18 l 412 18 b 382 20 402 18 393 18 b 338 45 365 24 351 32 l 337 45 b 397 1 349 16 370 1 l 427 1 b 440 0 432 1 437 1 z m 167 708 l 167 953 b 165 954 167 954 166 954 l 151 954 b 149 953 150 954 149 954 l 149 766 b 165 708 149 740 155 720 z m 165 1 b 167 2 166 1 167 1 l 167 400 b 236 469 167 441 200 469 l 282 469 b 283 470 283 469 283 469 b 230 486 263 485 252 486 b 214 484 224 486 219 485 b 149 391 170 470 149 439 l 149 18 l 79 18 b 52 20 61 18 52 18 b 5 45 38 20 22 28 b 3 43 3 45 3 45 b 62 1 16 15 35 1 z "},"Y":{"ha":501,"x_min":0,"x_max":0,"o":"m 301 31 b 303 33 302 31 303 32 l 303 510 b 382 551 327 517 351 528 b 470 730 441 603 470 663 l 470 908 b 468 924 470 913 469 919 b 408 970 455 955 435 970 l 336 970 b 334 968 335 970 334 969 l 334 763 b 235 657 334 697 287 657 l 210 661 b 136 763 161 677 136 712 l 136 968 b 134 970 136 969 136 970 l 62 970 b 45 968 56 970 51 969 b 0 908 15 955 0 935 l 0 730 b 167 510 0 638 62 543 l 167 93 b 229 31 167 56 199 31 z m 332 0 b 334 1 334 0 334 1 l 334 488 b 419 543 361 497 389 515 b 501 731 474 598 501 661 l 501 908 b 458 966 501 935 487 954 l 456 966 b 484 901 475 949 484 928 l 484 745 b 343 511 484 626 423 551 l 317 499 l 317 17 l 236 17 b 172 43 210 17 188 26 l 170 43 l 171 41 b 229 0 184 14 203 0 z m 165 707 b 167 709 167 707 167 708 l 167 953 b 165 954 167 954 167 954 l 151 954 b 150 953 151 954 150 954 l 150 754 b 165 707 150 738 155 722 z "},"Z":{"ha":501,"x_min":0,"x_max":0,"o":"m 469 31 b 470 33 469 31 470 32 l 470 130 b 408 189 470 158 443 189 l 192 189 b 438 834 355 616 437 831 b 471 928 460 887 471 918 b 429 970 471 953 457 966 l 62 970 b 0 906 31 970 0 943 l 0 814 b 1 812 0 812 1 812 l 278 812 l 24 144 b 0 73 8 107 0 83 b 41 31 0 50 16 31 z m 231 203 b 475 845 238 217 474 840 b 501 927 492 884 501 911 b 498 951 501 935 501 941 b 469 969 488 964 479 969 l 469 968 b 484 928 479 956 484 943 b 481 911 484 922 483 916 b 212 204 477 899 388 663 l 214 203 z m 251 781 b 258 798 252 781 254 786 l 256 798 l 17 798 b 16 796 16 798 16 798 l 16 783 b 17 781 16 781 16 781 z m 500 0 b 501 1 500 0 501 1 l 501 127 b 458 186 501 153 487 174 l 456 185 b 484 117 475 169 484 146 l 484 17 l 50 17 b 2 32 28 17 13 22 l 1 32 l 1 31 b 41 0 7 10 21 0 z "},"[":{"ha":688,"x_min":0,"x_max":0,"o":"m 600 -164 l 600 -130 l 538 -130 b 434 -45 485 -130 435 -100 l 434 952 b 538 1037 435 1007 485 1037 l 600 1037 l 600 1071 l 526 1071 b 349 929 425 1071 349 995 l 349 -22 b 526 -164 349 -88 425 -164 z "},"\\":{"ha":386,"x_min":0,"x_max":0,"o":"m 430 -34 l 63 972 l 9 972 l 376 -34 z "},"]":{"ha":688,"x_min":0,"x_max":0,"o":"m 422 -164 b 600 -22 523 -164 599 -88 l 600 929 b 422 1071 600 995 523 1071 l 349 1071 l 349 1037 l 410 1037 b 514 952 463 1037 513 1007 l 514 -45 b 410 -130 513 -100 463 -130 l 349 -130 l 349 -164 z "},"^":{"ha":688,"x_min":0,"x_max":0,"o":"m 463 597 l 244 977 l 206 977 l -12 597 l 64 597 l 225 880 l 387 597 z "},"_":{"ha":694,"x_min":0,"x_max":0,"o":"m 694 -109 l 694 -68 l 0 -68 l 0 -109 z "},"`":{"ha":694,"x_min":0,"x_max":0,"o":"m 456 732 l 259 932 b 194 972 229 963 212 972 b 144 924 163 972 144 952 b 186 869 144 905 158 887 l 410 732 z "},"a":{"ha":501,"x_min":0,"x_max":0,"o":"m 469 31 b 471 32 470 31 471 31 l 471 902 l 470 918 b 403 970 460 952 437 970 l 68 970 l 52 969 b 0 902 18 959 0 937 l 0 98 l 1 83 b 68 31 11 48 33 31 l 135 31 b 136 32 136 31 136 31 l 136 499 l 335 499 l 335 94 b 405 31 335 60 361 31 z m 499 0 b 500 1 500 0 500 1 l 501 909 b 458 966 501 940 473 966 l 458 965 b 484 907 475 948 484 928 l 484 17 l 398 17 b 340 43 376 17 357 26 l 338 43 b 401 0 343 23 364 0 z m 335 657 l 136 657 l 136 811 l 335 811 z m 165 671 b 167 672 167 671 167 671 l 167 781 l 319 781 b 321 783 320 781 321 781 l 321 796 b 319 798 321 798 320 798 l 152 798 b 151 796 151 798 151 798 l 151 672 b 152 671 151 671 151 671 z m 165 0 b 167 1 167 0 167 1 l 167 469 l 319 469 b 321 470 320 469 321 469 l 321 484 b 319 486 321 485 320 486 l 152 486 b 151 484 151 486 151 485 l 151 17 l 65 17 b 6 43 43 17 23 26 l 5 43 b 69 0 7 26 28 0 z "},"b":{"ha":501,"x_min":0,"x_max":0,"o":"m 469 31 b 470 33 469 31 470 32 l 470 475 b 435 578 470 509 458 544 l 435 579 b 470 682 458 614 470 648 l 470 908 b 410 970 470 944 438 970 l 60 970 l 47 968 b 0 908 16 956 0 936 l 0 93 b 60 31 0 57 32 31 z m 500 0 b 501 1 500 0 501 1 l 501 474 b 472 578 501 509 492 543 b 501 683 492 614 501 649 l 501 908 b 458 966 501 934 484 958 l 458 965 b 484 901 475 949 484 927 l 484 697 b 452 579 484 651 473 612 l 452 578 b 484 460 473 545 484 507 l 484 17 l 73 17 b 5 45 42 17 20 26 b 3 43 3 44 3 45 b 62 0 16 14 35 0 z m 267 657 l 136 657 l 136 812 l 334 812 l 334 726 b 267 657 334 681 309 657 z m 165 671 b 167 673 167 671 167 672 l 167 781 l 319 781 b 320 783 319 781 320 781 l 320 796 b 319 798 320 798 319 798 l 151 798 b 150 796 151 798 150 798 l 150 673 b 151 671 150 672 151 671 z m 334 189 l 136 189 l 136 500 l 267 500 b 334 432 311 500 334 475 z m 165 203 b 167 205 167 203 167 203 l 167 469 l 267 469 b 317 449 289 469 306 462 l 319 450 l 319 451 b 275 486 309 474 294 486 l 151 486 b 150 484 151 486 150 485 l 150 205 b 151 203 150 203 151 203 z "},"c":{"ha":501,"x_min":0,"x_max":0,"o":"m 469 31 b 470 33 469 31 470 32 l 470 344 b 469 345 470 345 469 345 l 395 345 b 334 284 359 345 334 313 l 334 189 l 136 189 l 136 812 l 334 812 l 334 657 b 336 656 334 656 334 656 l 469 656 b 470 657 469 656 470 656 l 470 909 b 409 970 470 945 438 970 l 61 970 b 0 909 25 970 0 938 l 0 92 b 61 31 0 56 32 31 z m 500 625 b 501 626 500 625 501 625 l 501 909 b 459 966 501 935 487 954 b 458 965 458 966 458 966 b 484 902 475 949 484 928 l 484 642 l 351 642 b 350 640 351 642 350 642 l 350 626 b 351 625 350 625 350 625 z m 165 203 b 167 205 167 203 167 203 l 167 781 l 319 781 b 320 783 319 781 320 781 l 320 796 b 319 798 320 798 319 798 l 151 798 b 150 796 151 798 150 798 l 150 205 b 151 203 150 203 151 203 z m 500 0 b 501 1 500 0 501 1 l 501 328 b 500 330 501 329 500 330 l 486 330 b 484 328 485 330 484 329 l 484 17 l 68 17 b 5 43 41 17 20 26 b 3 42 3 43 3 44 b 61 0 16 14 35 0 z "},"d":{"ha":501,"x_min":0,"x_max":0,"o":"m 469 31 b 470 33 469 31 470 32 l 470 785 b 436 890 470 821 458 856 b 286 970 395 943 345 970 l 60 970 b 0 909 30 970 0 941 l 0 92 b 60 31 0 61 28 31 z m 500 0 b 501 1 500 0 501 1 l 501 785 b 492 840 501 802 498 820 b 396 951 475 890 442 928 l 395 951 l 395 949 b 484 773 454 907 484 848 l 484 17 l 68 17 b 5 45 42 17 20 26 l 3 43 b 7 35 3 42 5 39 b 60 0 21 12 39 0 z m 332 189 l 138 189 b 136 191 136 189 136 189 l 136 810 b 138 812 136 811 136 812 l 250 812 b 334 719 297 812 334 786 l 334 191 b 332 189 334 189 334 189 z m 165 203 b 167 205 167 203 167 203 l 167 779 b 169 781 167 780 168 781 l 250 781 b 315 753 277 781 300 772 l 316 753 l 316 754 l 315 758 b 257 798 302 785 283 798 l 151 798 b 150 796 151 798 150 798 l 150 205 b 151 203 150 203 151 203 z "},"e":{"ha":501,"x_min":0,"x_max":0,"o":"m 469 31 b 471 32 470 31 471 31 l 471 187 b 469 189 471 189 470 189 l 136 189 l 136 499 l 335 499 b 336 500 336 499 336 499 l 336 656 b 335 657 336 656 336 657 l 136 657 l 136 811 l 469 811 b 471 813 470 811 471 812 l 471 891 b 468 924 471 907 470 918 b 407 970 455 955 435 970 l 65 970 b 47 968 58 970 52 969 b 0 905 16 956 0 935 l 0 94 b 77 31 0 63 20 31 z m 165 671 b 167 672 167 671 167 671 l 167 781 l 500 781 b 501 783 500 781 501 781 l 501 907 b 458 966 501 935 487 954 l 456 965 b 484 903 475 948 484 928 l 484 798 l 151 798 b 150 796 151 798 150 798 l 150 672 b 151 671 150 671 151 671 z m 165 202 b 167 204 167 202 167 203 l 167 469 l 319 469 b 321 470 320 469 321 469 l 321 484 b 319 486 321 485 320 486 l 151 486 b 150 484 151 486 150 485 l 150 204 b 151 202 150 203 151 202 z m 500 0 b 501 1 500 0 501 1 l 501 172 b 500 174 501 173 500 173 l 486 174 b 484 172 485 174 484 173 l 484 17 l 66 17 b 5 45 42 17 21 26 l 3 43 b 63 0 16 14 35 0 z "},"f":{"ha":501,"x_min":0,"x_max":0,"o":"m 135 31 b 136 32 136 31 136 31 l 136 499 l 335 499 b 336 500 336 499 336 499 l 336 656 b 335 657 336 656 336 657 l 136 657 l 136 811 l 469 811 b 471 813 470 811 471 812 l 471 891 b 468 924 471 907 470 918 b 407 970 455 955 435 970 l 65 970 b 47 968 58 970 52 969 b 0 905 16 956 0 935 l 0 94 b 77 31 0 63 20 31 z m 165 671 b 167 672 167 671 167 671 l 167 781 l 500 781 b 501 783 500 781 501 781 l 501 907 b 458 966 501 935 487 954 l 456 965 b 484 903 475 948 484 928 l 484 798 l 151 798 b 150 796 151 798 150 798 l 150 672 b 151 671 150 671 151 671 z m 165 0 b 167 1 167 0 167 1 l 167 469 l 319 469 b 321 470 320 469 321 469 l 321 484 b 319 486 321 485 320 486 l 151 486 b 150 484 151 486 150 485 l 150 17 l 66 17 b 5 45 42 17 21 26 l 3 43 b 63 0 16 14 35 0 z "},"g":{"ha":503,"x_min":0,"x_max":0,"o":"m 469 31 b 471 33 470 31 471 32 l 471 655 b 469 657 471 656 470 657 l 296 657 b 249 634 278 657 262 650 b 234 580 239 625 234 607 l 234 501 b 235 499 234 500 235 499 l 334 499 l 334 189 l 136 189 l 136 812 l 469 812 b 471 813 470 812 471 812 l 471 906 b 411 969 471 943 442 969 l 62 969 b 18 949 45 969 31 962 b 0 892 6 940 0 921 l 0 108 b 6 68 0 87 2 74 b 62 31 19 43 37 31 z m 166 203 b 168 204 168 203 168 203 l 168 781 l 500 781 b 502 782 501 781 502 781 l 502 836 l 503 867 b 502 895 502 871 502 880 l 502 906 b 458 966 502 935 483 958 l 458 964 b 484 910 475 947 484 929 l 484 798 l 151 798 b 150 796 151 798 150 797 l 150 204 b 151 203 150 203 151 203 z m 500 0 b 502 1 501 0 502 1 l 502 686 l 501 688 l 326 689 b 267 680 292 689 273 686 b 238 646 254 674 244 662 l 238 644 l 239 644 b 307 671 254 662 277 671 l 484 671 l 484 17 l 68 17 b 6 43 41 17 20 26 l 4 43 b 5 40 4 42 4 41 b 62 0 18 14 37 0 z "},"h":{"ha":501,"x_min":0,"x_max":0,"o":"m 469 31 b 470 33 469 31 470 32 l 470 908 b 468 924 470 913 469 919 b 408 970 455 955 435 970 l 336 970 b 334 968 335 970 334 969 l 334 657 l 136 657 l 136 968 b 135 970 136 969 136 970 l 62 970 b 45 968 56 970 51 969 b 0 908 15 955 0 935 l 0 93 b 2 77 0 87 1 82 b 62 31 15 46 35 31 l 135 31 b 136 33 136 31 136 32 l 136 500 l 334 500 l 334 104 b 336 77 334 94 335 85 b 397 31 349 47 369 31 z m 500 0 b 501 1 500 0 501 1 l 501 908 b 458 966 501 939 473 965 l 458 965 b 484 902 475 949 484 928 l 484 17 l 403 17 b 340 45 376 17 355 26 l 338 43 l 340 38 b 397 0 353 13 372 0 z m 166 671 b 168 673 168 671 168 672 l 168 953 b 166 954 168 954 168 954 l 151 954 b 150 953 151 954 150 954 l 150 673 b 151 671 150 672 151 671 z m 166 0 b 168 1 168 0 168 1 l 168 469 l 319 469 b 321 470 320 469 321 469 l 321 484 b 319 486 321 485 320 486 l 151 486 b 150 484 151 486 150 485 l 150 17 l 68 17 b 5 43 42 17 21 26 l 3 43 l 4 41 b 62 0 17 14 37 0 z "},"i":{"ha":167,"x_min":0,"x_max":0,"o":"m 134 31 b 136 33 135 31 136 32 l 136 907 b 134 924 136 913 135 918 b 61 968 117 964 97 968 b 0 907 24 968 0 937 l 0 92 b 61 31 0 56 32 31 z m 165 0 b 167 1 166 0 167 1 l 167 907 b 124 965 167 932 152 956 l 123 965 l 123 964 b 150 901 141 948 150 927 l 150 17 l 68 17 b 5 43 41 17 20 26 l 3 43 b 4 41 3 43 3 41 b 61 0 16 14 35 0 z "},"j":{"ha":501,"x_min":0,"x_max":0,"o":"m 469 31 b 470 33 469 31 470 32 l 470 909 b 409 970 470 945 438 970 l 336 970 b 334 968 335 970 334 969 l 334 189 l 136 189 l 136 344 b 134 345 136 345 136 345 l 61 345 b 0 284 25 345 0 313 l 0 94 b 62 31 0 64 26 31 z m 500 0 b 501 1 500 0 501 1 l 501 909 b 458 966 501 933 486 957 l 458 966 l 458 965 b 484 902 475 949 484 928 l 484 17 l 69 17 b 5 45 42 17 21 26 b 3 43 3 44 3 45 b 62 0 16 14 36 0 z m 165 203 b 167 205 167 203 167 203 l 167 328 b 165 330 167 329 167 330 l 151 330 b 150 328 151 330 150 329 l 150 205 b 151 203 150 203 151 203 z "},"k":{"ha":501,"x_min":0,"x_max":0,"o":"m 469 31 b 470 33 469 31 470 32 l 470 473 b 435 578 470 509 458 544 l 435 579 b 470 682 458 614 470 648 l 470 908 b 408 970 470 945 437 970 l 336 970 b 334 968 335 970 334 969 l 334 726 b 332 705 334 715 334 708 b 265 657 323 673 300 657 l 138 657 b 136 659 136 657 136 658 l 136 968 b 134 970 136 969 136 970 l 62 970 b 0 908 25 970 0 937 l 0 93 b 62 31 0 62 27 31 l 134 31 b 136 33 136 31 136 32 l 136 500 l 270 500 b 334 432 305 500 334 475 l 334 102 b 394 31 334 53 366 31 z m 500 0 b 501 1 500 0 501 1 l 501 473 b 472 578 501 509 492 544 b 501 683 492 614 501 649 l 501 908 b 458 966 501 932 485 958 l 458 965 b 484 901 475 949 484 928 l 484 697 b 452 579 484 651 473 612 l 452 578 b 484 460 473 546 484 507 l 484 17 l 405 17 b 340 45 376 17 354 26 l 338 43 l 340 38 b 397 0 353 13 372 0 z m 165 671 b 167 673 167 671 167 672 l 167 953 b 165 954 167 954 167 954 l 151 954 b 150 953 151 954 150 954 l 150 673 b 151 671 150 672 151 671 z m 165 0 b 167 1 167 0 167 1 l 167 469 l 267 469 b 317 450 288 469 304 463 l 319 450 l 319 450 b 275 486 310 474 295 486 l 151 486 b 150 484 151 486 150 485 l 150 19 b 149 17 150 18 149 17 l 77 17 b 5 45 37 17 18 27 l 3 43 b 62 0 15 14 35 0 z "},"l":{"ha":501,"x_min":0,"x_max":0,"o":"m 469 31 b 470 32 469 31 470 31 l 470 127 b 404 189 470 159 444 189 l 136 189 l 136 968 b 134 970 136 969 136 970 l 67 970 b 46 968 59 970 52 969 b 0 908 16 956 0 936 l 0 32 b 1 31 0 31 1 31 z m 165 201 b 166 203 165 201 166 202 l 166 952 b 165 954 166 953 165 954 l 151 954 b 149 952 150 954 149 953 l 149 203 b 151 201 149 202 150 201 z m 500 0 b 501 1 500 0 501 1 l 501 128 b 487 167 501 142 496 155 b 458 186 474 179 464 185 l 456 185 b 484 120 475 168 484 147 l 484 18 l 18 18 b 16 16 17 18 16 18 l 16 1 b 18 0 16 1 17 0 z "},"m":{"ha":501,"x_min":0,"x_max":0,"o":"m 469 31 b 470 32 469 31 470 31 l 470 910 b 468 925 470 914 469 919 b 404 970 456 955 435 970 l 335 970 b 236 784 333 967 300 905 l 234 784 l 156 932 b 134 970 142 958 135 970 l 68 970 b 0 909 20 970 0 936 l 0 94 l 1 83 b 68 31 10 48 33 31 l 134 31 b 136 32 136 31 136 31 l 136 683 b 235 500 138 680 227 512 b 239 505 235 500 237 502 b 334 683 301 623 333 683 l 334 92 b 401 31 334 56 365 31 z m 236 814 l 236 847 b 170 970 195 924 174 965 l 153 970 l 151 969 b 233 814 203 871 231 820 z m 500 0 b 501 1 500 0 501 1 l 501 908 b 492 941 501 918 498 928 b 455 966 475 960 465 966 l 455 966 b 484 902 474 950 484 929 l 484 18 l 396 18 b 338 45 374 18 355 27 l 336 45 b 353 17 338 37 343 28 b 403 0 361 5 378 0 z m 164 0 b 165 1 165 0 165 1 l 165 564 b 218 467 170 557 188 524 l 220 467 l 228 484 l 151 629 l 149 629 l 149 18 l 63 18 b 4 46 41 18 21 27 l 2 45 b 68 0 14 14 33 0 z "},"n":{"ha":501,"x_min":0,"x_max":0,"o":"m 469 31 b 470 33 469 31 470 32 l 470 909 b 410 970 470 940 441 970 l 336 970 b 334 968 335 970 334 969 l 334 723 l 135 970 l 60 970 b 0 909 30 970 0 941 l 0 92 b 60 31 0 61 28 31 l 134 31 b 136 33 136 31 136 32 l 136 747 l 334 500 l 334 92 b 394 31 334 61 363 31 z m 319 764 b 320 765 319 764 320 764 l 320 789 b 175 970 227 907 178 967 l 155 970 l 154 969 z m 500 0 b 501 1 500 0 501 1 l 501 909 b 495 935 501 916 499 925 b 458 966 486 950 474 961 b 456 965 457 966 457 966 b 484 901 475 949 484 928 l 484 17 l 403 17 b 339 45 376 17 355 26 l 337 43 l 341 34 b 394 0 356 12 374 0 z m 165 0 b 167 1 167 0 167 1 l 167 657 b 303 489 168 656 214 600 b 304 490 304 489 304 490 l 304 515 l 151 706 b 150 705 151 706 150 705 l 150 17 l 68 17 b 5 45 42 17 20 26 l 3 43 l 7 34 b 60 0 22 12 39 0 z "},"o":{"ha":501,"x_min":0,"x_max":0,"o":"m 408 31 b 470 93 445 31 470 64 l 470 908 b 408 970 470 945 437 970 l 62 970 b 0 908 25 970 0 937 l 0 93 b 62 31 0 56 33 31 z m 410 0 b 501 92 457 0 501 42 l 501 908 b 455 966 501 941 472 966 l 455 966 b 484 903 474 950 484 929 l 484 98 b 406 18 484 47 446 18 l 66 18 b 4 46 41 18 20 27 l 3 46 l 3 42 b 62 0 16 14 36 0 z m 334 189 l 136 189 l 136 810 b 138 812 136 811 136 812 l 332 812 b 334 810 334 812 334 812 z m 165 202 b 167 204 167 202 167 203 l 167 779 b 169 781 167 780 168 781 l 319 781 b 321 783 320 781 321 781 l 321 798 b 319 799 321 798 320 799 l 151 799 b 149 798 150 799 149 798 l 149 204 b 151 202 149 203 150 202 z "},"p":{"ha":502,"x_min":0,"x_max":0,"o":"m 135 32 b 136 33 136 32 136 33 l 136 499 l 404 499 b 425 503 412 499 419 500 b 470 565 455 514 470 535 l 470 905 l 469 921 b 402 969 458 953 436 969 l 68 969 b 48 968 62 969 56 968 b 0 901 16 957 0 935 l 0 100 b 3 77 0 90 1 83 b 64 32 15 47 35 32 z m 168 0 l 168 1 l 168 467 l 399 467 b 502 560 466 467 502 515 l 501 891 b 460 965 501 934 489 954 l 459 965 l 459 964 b 484 907 475 947 484 928 l 484 562 b 407 486 484 517 447 486 l 152 486 b 151 484 151 486 151 485 l 151 18 l 62 18 b 5 43 41 18 22 26 l 5 43 l 5 41 b 80 1 21 5 42 1 z m 334 658 l 136 658 l 136 811 l 334 811 z m 167 671 b 168 673 168 671 168 672 l 168 779 l 318 779 b 319 781 319 779 319 779 l 319 795 b 318 797 319 796 319 797 l 152 797 b 151 795 151 797 151 796 l 151 673 b 152 671 151 672 151 671 z "},"q":{"ha":635,"x_min":0,"x_max":0,"o":"m 603 31 b 604 33 604 31 604 32 l 604 187 b 603 189 604 189 604 189 l 533 189 b 515 191 526 189 520 190 b 470 255 485 201 470 223 l 470 908 b 468 924 470 913 469 919 b 408 970 455 955 435 970 l 62 970 b 0 908 25 970 0 938 l 0 93 b 62 31 0 64 26 31 l 408 31 b 442 41 419 31 431 35 b 469 81 460 57 469 70 b 474 68 473 81 470 76 b 530 31 487 43 506 31 z m 634 0 b 635 1 635 0 635 1 l 635 218 b 634 220 635 220 635 220 l 533 220 b 501 252 514 220 503 231 l 501 908 b 458 966 501 932 485 958 l 458 965 b 484 901 475 949 484 927 l 484 248 b 486 237 484 245 484 241 b 528 203 496 214 510 203 l 618 203 l 618 17 l 537 17 b 473 43 511 17 489 26 l 471 43 l 472 41 b 530 0 485 14 505 0 z m 334 189 l 136 189 l 136 812 l 332 812 b 334 810 334 812 334 812 z m 165 203 b 167 205 167 203 167 203 l 167 781 l 319 781 b 320 783 319 781 320 781 l 320 796 b 319 798 320 798 319 798 l 151 798 b 150 796 151 798 150 798 l 150 205 b 151 203 150 203 151 203 z m 410 0 b 439 8 418 0 427 3 b 467 45 458 22 467 35 l 466 45 b 401 17 450 26 428 17 l 68 17 b 5 43 42 17 21 26 l 3 43 l 4 41 b 62 0 17 14 36 0 z "},"r":{"ha":501,"x_min":0,"x_max":0,"o":"m 469 31 b 470 33 469 31 470 32 l 470 473 b 435 578 470 509 458 544 l 435 579 b 470 682 458 614 470 648 l 470 908 b 408 970 470 945 437 970 l 62 970 b 0 908 25 970 0 937 l 0 93 b 62 31 0 62 27 31 l 134 31 b 136 33 136 31 136 32 l 136 500 l 270 500 b 334 432 305 500 334 475 l 334 102 b 394 31 334 53 366 31 z m 500 0 b 501 1 500 0 501 1 l 501 473 b 472 578 501 509 492 544 b 501 683 492 614 501 649 l 501 908 b 458 966 501 932 485 958 l 458 965 b 484 901 475 949 484 928 l 484 697 b 452 579 484 651 473 612 l 452 578 b 484 460 473 546 484 507 l 484 17 l 405 17 b 340 45 376 17 354 26 l 338 43 l 340 38 b 397 0 353 13 372 0 z m 265 657 l 138 657 b 136 659 136 657 136 658 l 136 810 b 138 812 136 811 136 812 l 332 812 b 334 810 334 812 334 812 l 334 726 b 332 705 334 715 334 708 b 265 657 323 673 300 657 z m 165 671 b 167 673 167 671 167 672 l 167 780 l 319 780 b 320 782 319 780 320 781 l 320 796 b 319 798 320 798 319 798 l 151 798 b 150 796 151 798 150 798 l 150 673 b 151 671 150 672 151 671 z m 165 0 b 167 1 167 0 167 1 l 167 469 l 267 469 b 317 450 288 469 304 463 l 319 450 l 319 450 b 275 486 310 474 295 486 l 151 486 b 150 484 151 486 150 485 l 150 19 b 149 17 150 18 149 17 l 77 17 b 5 45 37 17 18 27 l 3 43 b 62 0 15 14 35 0 z "},"s":{"ha":501,"x_min":0,"x_max":0,"o":"m 469 31 b 470 32 469 31 470 31 l 470 595 b 468 612 470 600 469 606 b 402 657 456 642 434 657 l 136 657 l 136 811 l 469 811 b 470 813 469 811 470 812 l 470 907 b 468 924 470 912 469 918 b 402 970 456 955 434 970 l 68 970 b 0 907 25 970 0 939 l 0 562 b 2 545 0 557 1 551 b 68 499 14 514 36 499 l 334 499 l 334 189 l 1 189 b 0 187 1 189 0 189 l 0 93 b 2 76 0 88 1 82 b 68 31 14 45 36 31 z m 166 672 b 168 674 168 672 168 673 l 168 779 l 376 779 l 500 780 l 501 782 l 501 909 b 460 965 501 930 484 957 l 459 965 l 459 964 b 485 901 476 948 485 926 l 485 796 l 152 796 b 151 795 151 796 151 796 l 151 674 b 152 672 151 673 151 672 z m 500 0 l 501 1 l 501 595 b 459 653 501 624 475 653 l 459 652 b 485 588 476 635 485 614 l 485 16 l 62 16 b 5 42 41 16 22 25 l 4 41 l 5 37 b 62 1 19 14 37 1 b 500 0 151 1 297 1 z m 319 468 b 320 469 319 468 320 468 l 320 484 l 319 485 l 60 486 b 5 512 41 486 22 494 l 3 512 b 68 468 14 483 36 468 z "},"t":{"ha":501,"x_min":0,"x_max":0,"o":"m 301 31 b 303 33 302 31 303 32 l 303 812 l 469 812 b 470 814 469 812 470 812 l 470 909 b 464 935 470 916 468 924 b 410 970 449 958 431 970 l 60 970 b 35 964 54 970 45 968 b 0 909 12 949 0 931 l 0 814 b 1 812 0 812 1 812 l 167 812 l 167 91 b 227 31 167 62 195 31 z m 332 0 b 334 1 334 0 334 1 l 334 781 l 500 781 b 501 783 500 781 501 781 l 501 909 b 458 966 501 930 486 956 b 456 965 457 966 457 966 b 484 901 475 949 484 928 l 484 798 l 319 798 b 317 796 317 798 317 798 l 317 17 l 235 17 b 172 43 209 17 188 26 l 170 43 l 172 38 b 227 0 185 13 203 0 z m 151 781 b 153 783 153 781 153 781 l 153 796 b 151 798 153 798 153 798 l 17 798 b 16 796 16 798 16 798 l 16 783 b 17 781 16 781 16 781 z "},"u":{"ha":501,"x_min":0,"x_max":0,"o":"m 469 31 b 471 32 470 31 471 31 l 471 902 b 401 970 471 939 446 970 l 355 970 b 334 968 341 970 334 969 l 334 189 l 136 189 l 136 968 b 117 970 136 969 130 970 l 71 970 b 52 968 62 970 56 969 b 0 902 17 959 0 937 l 0 98 b 5 71 0 87 1 78 b 64 31 18 44 37 31 z m 500 0 b 501 1 500 0 501 1 l 501 903 b 456 966 501 935 486 957 l 455 966 b 484 908 474 948 484 929 l 484 18 l 61 18 b 5 45 40 18 22 27 l 3 45 l 3 45 b 65 0 14 15 34 0 z m 165 201 b 167 203 167 201 167 202 l 167 952 b 165 954 167 953 167 954 l 151 954 b 149 952 150 954 149 953 l 149 203 b 151 201 149 202 150 201 z "},"v":{"ha":501,"x_min":0,"x_max":0,"o":"m 213 31 l 236 31 l 305 31 l 307 32 b 470 892 420 628 470 879 b 440 947 470 916 463 932 b 348 970 440 952 410 960 b 343 953 347 970 346 964 l 236 384 l 234 384 b 123 970 225 433 188 629 b 42 954 78 962 52 957 b 0 895 14 941 0 921 b 19 790 0 886 2 873 b 153 87 106 327 151 92 b 170 52 153 77 159 64 b 213 31 184 37 199 31 z m 235 460 b 243 500 236 460 239 473 b 156 960 243 503 214 656 b 139 958 148 960 142 958 b 221 530 193 673 220 531 b 235 460 229 484 234 460 z m 332 0 b 439 564 334 6 370 194 b 501 892 481 776 501 885 b 458 954 501 915 489 943 l 456 954 l 456 953 b 484 892 475 935 484 916 b 317 17 484 882 425 576 l 216 17 b 157 45 194 17 174 26 l 156 45 l 156 42 b 214 0 169 14 188 0 z "},"w":{"ha":501,"x_min":0,"x_max":0,"o":"m 469 31 b 470 33 469 31 470 32 l 470 909 b 409 970 470 945 438 970 l 336 970 b 334 968 335 970 334 969 l 334 317 l 334 317 l 236 501 l 234 500 b 136 317 137 319 138 317 l 136 968 b 134 970 136 969 136 970 l 62 970 b 0 907 33 970 0 943 l 0 94 b 62 31 0 64 26 31 l 136 31 l 235 216 l 236 216 b 335 31 298 99 331 37 z m 500 0 b 501 1 500 0 501 1 l 501 909 b 459 966 501 935 487 954 b 458 965 458 966 458 966 b 484 902 475 949 484 928 l 484 17 l 342 17 l 342 16 b 351 0 347 6 350 1 z m 151 375 b 167 406 162 393 167 404 l 167 953 b 165 954 167 954 167 954 l 151 954 b 150 953 151 954 150 954 l 150 376 b 151 375 151 375 150 375 z m 319 375 b 320 376 319 375 320 375 l 320 408 b 262 517 320 410 300 447 b 252 500 260 516 256 510 z m 155 0 b 236 154 209 101 236 153 l 236 185 l 235 186 b 222 165 234 186 230 180 b 143 17 172 69 145 20 l 69 17 b 5 45 43 17 21 26 b 3 43 3 44 3 45 b 62 0 16 14 36 0 z "},"x":{"ha":500,"x_min":0,"x_max":0,"o":"m 468 32 b 469 33 469 32 469 33 l 469 427 b 410 578 469 481 450 532 b 469 729 450 626 469 676 l 469 907 b 445 956 469 926 461 942 b 391 970 436 965 418 970 l 335 970 b 334 968 334 970 334 969 l 334 757 b 311 694 334 734 326 713 b 229 658 283 663 262 658 b 136 757 183 658 136 701 l 136 968 b 134 970 136 969 135 970 l 78 970 b 45 966 62 970 51 968 b 0 907 15 954 0 935 l 0 729 b 59 578 0 676 20 626 b 0 427 20 532 0 481 l 0 94 b 62 32 0 57 33 32 l 134 32 b 136 33 135 32 136 33 l 136 400 b 234 500 136 454 179 500 b 334 400 290 500 334 457 l 334 97 b 397 32 334 56 366 32 z m 440 0 l 454 1 l 499 1 b 500 2 500 1 500 1 l 500 427 b 450 579 500 479 484 531 b 500 730 484 626 500 677 l 500 907 b 458 966 500 933 486 953 l 456 965 b 484 901 474 949 484 927 l 484 745 b 428 578 484 680 465 624 b 484 412 465 534 484 478 l 484 20 b 481 18 484 18 483 18 l 412 18 b 382 20 402 18 393 18 b 338 45 365 24 351 32 l 337 45 b 397 1 349 16 370 1 l 427 1 b 440 0 432 1 437 1 z m 167 708 l 167 953 b 165 954 167 954 166 954 l 151 954 b 149 953 150 954 149 954 l 149 766 b 165 708 149 740 155 720 z m 165 1 b 167 2 166 1 167 1 l 167 400 b 236 469 167 441 200 469 l 282 469 b 283 470 283 469 283 469 b 230 486 263 485 252 486 b 214 484 224 486 219 485 b 149 391 170 470 149 439 l 149 18 l 79 18 b 52 20 61 18 52 18 b 5 45 38 20 22 28 b 3 43 3 45 3 45 b 62 1 16 15 35 1 z "},"y":{"ha":501,"x_min":0,"x_max":0,"o":"m 301 31 b 303 33 302 31 303 32 l 303 510 b 382 551 327 517 351 528 b 470 730 441 603 470 663 l 470 908 b 468 924 470 913 469 919 b 408 970 455 955 435 970 l 336 970 b 334 968 335 970 334 969 l 334 763 b 235 657 334 697 287 657 l 210 661 b 136 763 161 677 136 712 l 136 968 b 134 970 136 969 136 970 l 62 970 b 45 968 56 970 51 969 b 0 908 15 955 0 935 l 0 730 b 167 510 0 638 62 543 l 167 93 b 229 31 167 56 199 31 z m 332 0 b 334 1 334 0 334 1 l 334 488 b 419 543 361 497 389 515 b 501 731 474 598 501 661 l 501 908 b 458 966 501 935 487 954 l 456 966 b 484 901 475 949 484 928 l 484 745 b 343 511 484 626 423 551 l 317 499 l 317 17 l 236 17 b 172 43 210 17 188 26 l 170 43 l 171 41 b 229 0 184 14 203 0 z m 165 707 b 167 709 167 707 167 708 l 167 953 b 165 954 167 954 167 954 l 151 954 b 150 953 151 954 150 954 l 150 754 b 165 707 150 738 155 722 z "},"z":{"ha":501,"x_min":0,"x_max":0,"o":"m 469 31 b 470 33 469 31 470 32 l 470 130 b 408 189 470 158 443 189 l 192 189 b 438 834 355 616 437 831 b 471 928 460 887 471 918 b 429 970 471 953 457 966 l 62 970 b 0 906 31 970 0 943 l 0 814 b 1 812 0 812 1 812 l 278 812 l 24 144 b 0 73 8 107 0 83 b 41 31 0 50 16 31 z m 231 203 b 475 845 238 217 474 840 b 501 927 492 884 501 911 b 498 951 501 935 501 941 b 469 969 488 964 479 969 l 469 968 b 484 928 479 956 484 943 b 481 911 484 922 483 916 b 212 204 477 899 388 663 l 214 203 z m 251 781 b 258 798 252 781 254 786 l 256 798 l 17 798 b 16 796 16 798 16 798 l 16 783 b 17 781 16 781 16 781 z m 500 0 b 501 1 500 0 501 1 l 501 127 b 458 186 501 153 487 174 l 456 185 b 484 117 475 169 484 146 l 484 17 l 50 17 b 2 32 28 17 13 22 l 1 32 l 1 31 b 41 0 7 10 21 0 z "},"{":{"ha":688,"x_min":0,"x_max":0,"o":"m 600 -164 l 600 -130 l 538 -130 b 434 -45 485 -130 435 -100 l 435 294 b 296 452 435 368 373 452 l 296 454 b 434 613 373 454 434 538 l 434 952 b 538 1037 435 1007 485 1037 l 600 1037 l 600 1071 l 526 1071 b 349 929 425 1071 349 995 l 349 612 b 314 522 349 581 337 551 b 163 473 291 492 241 475 l 163 433 b 314 385 241 431 291 414 b 349 295 337 355 349 325 l 349 -22 b 526 -164 349 -88 425 -164 z "},"|":{"ha":688,"x_min":0,"x_max":0,"o":"m 398 -283 l 398 1069 l 290 1069 l 290 -283 z "},"}":{"ha":688,"x_min":0,"x_max":0,"o":"m 161 -164 b 339 -22 262 -164 338 -88 l 339 295 b 374 385 339 325 351 355 b 525 433 397 414 447 431 l 525 473 b 374 522 447 475 397 492 b 339 612 351 551 339 581 l 339 929 b 161 1071 339 995 262 1071 l 88 1071 l 88 1037 l 149 1037 b 254 952 203 1037 253 1007 l 254 613 b 392 454 254 538 315 454 l 392 452 b 253 294 314 452 253 368 l 254 -45 b 149 -130 253 -100 203 -130 l 88 -130 l 88 -164 z "},"~":{"ha":688,"x_min":0,"x_max":0,"o":"m 64 377 b 224 472 127 450 176 472 b 345 439 251 472 291 461 b 465 406 397 417 437 406 b 626 490 517 406 570 427 l 626 595 b 465 500 563 523 513 500 b 348 534 439 500 401 512 b 224 568 294 557 254 568 b 64 483 174 568 120 547 z "},"":{"ha":456,"x_min":0,"x_max":0,"o":""},"":{"ha":772,"x_min":0,"x_max":0,"o":""},"":{"ha":688,"x_min":0,"x_max":0,"o":"m 565 0 l 635 157 l 602 157 b 473 68 575 98 532 68 l 201 68 b 311 322 274 165 311 250 b 266 456 311 361 296 406 l 492 456 l 492 497 l 248 497 b 212 703 224 559 212 628 b 399 935 212 842 309 935 b 573 844 493 935 568 902 l 599 844 l 599 954 b 395 986 599 972 496 986 b 188 904 313 986 243 959 b 104 669 132 849 104 771 b 143 497 104 619 117 562 l 52 497 l 52 456 l 161 456 b 205 317 190 399 205 352 b 78 34 205 236 163 142 l 77 0 z "},"":{"ha":688,"x_min":0,"x_max":0,"o":"m 344 336 b 193 486 265 336 193 402 b 343 637 193 563 260 637 b 495 486 425 637 495 568 b 344 336 495 407 427 336 z m 550 225 l 604 280 l 525 359 b 566 486 550 397 566 441 b 525 613 566 532 550 576 l 604 692 l 550 747 l 470 667 b 345 708 433 692 387 708 b 217 667 300 708 252 691 l 137 747 l 83 692 l 163 612 b 122 486 138 578 122 531 b 163 359 122 442 138 395 l 83 280 l 137 225 l 217 305 b 344 264 251 281 298 264 b 470 305 388 264 433 279 z "},"":{"ha":688,"x_min":0,"x_max":0,"o":"m 509 0 l 509 34 l 452 34 b 392 193 412 34 392 87 l 392 382 l 566 382 l 566 423 l 392 423 l 392 464 l 566 464 l 566 505 l 410 505 l 566 823 b 681 939 602 900 640 939 l 703 939 l 703 972 l 448 972 l 448 939 l 506 939 b 536 907 526 939 536 928 b 511 823 536 888 528 860 l 357 515 l 209 823 b 184 903 193 857 184 884 b 223 939 184 926 197 939 l 280 939 l 280 972 l -15 972 l -15 939 l 7 939 b 113 822 42 939 77 900 l 275 505 l 125 505 l 125 464 l 296 464 l 297 463 l 297 423 l 125 423 l 125 382 l 297 382 l 297 193 b 236 34 297 87 277 34 l 180 34 l 180 0 z "},"":{"ha":688,"x_min":0,"x_max":0,"o":"m 398 -283 l 398 252 l 290 252 l 290 -283 z m 398 535 l 398 1070 l 290 1070 l 290 535 z "},"":{"ha":688,"x_min":0,"x_max":0,"o":"m 370 218 b 201 387 258 275 201 332 b 318 497 201 453 247 497 b 483 373 412 497 479 430 l 484 373 l 485 366 b 370 218 485 294 439 237 z m 316 -282 b 504 -211 385 -281 448 -257 b 572 -19 549 -160 572 -96 b 431 188 572 75 534 134 b 498 231 454 199 477 214 b 566 422 543 281 566 345 b 390 647 566 526 519 589 b 195 829 260 709 195 770 b 312 939 195 895 241 939 b 477 815 395 939 473 889 l 512 815 l 512 947 b 336 986 512 970 398 986 b 322 985 330 986 327 986 b 115 766 196 979 115 899 b 297 541 115 661 169 602 b 121 324 191 523 121 447 b 276 111 121 227 169 167 b 490 -76 419 43 490 -20 b 316 -235 490 -171 416 -229 b 163 -111 241 -230 168 -183 l 129 -111 l 129 -243 b 307 -282 129 -267 250 -282 l 316 -281 z "},"":{"ha":694,"x_min":0,"x_max":0,"o":"m 216 774 b 233 786 220 774 226 779 l 280 837 b 288 855 286 843 288 849 b 281 872 288 860 286 866 l 235 922 b 216 931 227 928 221 931 b 199 923 211 931 205 928 l 151 874 b 142 857 145 868 142 863 b 148 841 142 852 144 846 l 199 783 b 216 774 204 777 210 774 z m 464 774 b 481 786 467 774 473 779 l 528 838 b 536 855 533 844 536 849 b 529 872 536 860 534 866 l 482 922 b 464 931 475 928 469 931 b 447 923 458 931 453 928 l 399 874 b 389 857 393 868 389 863 b 395 842 389 852 391 846 l 447 783 b 464 774 452 777 458 774 z "},"":{"ha":1135,"x_min":0,"x_max":0,"o":"m 587 151 b 817 237 724 151 817 197 l 817 305 l 781 305 b 602 182 781 243 718 182 b 489 210 559 182 522 192 b 339 499 398 259 339 376 b 361 624 339 542 347 583 b 557 792 400 732 482 785 b 755 690 635 792 706 779 l 785 690 l 736 825 l 708 825 b 690 804 705 811 699 804 l 684 805 b 582 823 650 817 617 823 b 410 779 522 823 465 808 b 238 488 294 715 238 597 b 281 323 238 431 252 376 b 587 151 341 214 462 151 z m 568 28 b 243 163 441 28 333 73 b 109 488 153 253 109 361 b 243 812 109 614 153 722 b 568 947 333 902 441 947 b 892 812 694 947 802 902 b 1027 488 982 722 1027 614 b 892 163 1027 361 982 253 b 568 28 802 73 694 28 z m 568 -12 b 921 134 705 -12 823 37 b 1067 488 1019 232 1067 350 b 921 841 1067 625 1019 743 b 568 987 823 939 705 987 b 214 841 430 987 312 939 b 68 488 117 743 68 625 b 214 134 68 350 117 232 b 568 -12 312 37 430 -12 z "},"":{"ha":439,"x_min":0,"x_max":0,"o":""},"":{"ha":640,"x_min":0,"x_max":0,"o":"m 359 119 l 359 144 l 220 325 l 359 505 l 359 530 l 350 530 l 118 325 l 350 119 z m 572 119 l 572 144 l 433 325 l 572 505 l 572 530 l 562 530 l 330 325 l 562 119 z "},"":{"ha":688,"x_min":0,"x_max":0,"o":"m 628 186 l 629 187 l 629 520 l 59 520 l 59 452 l 562 452 l 562 186 z "},"":{"ha":1135,"x_min":0,"x_max":0,"o":"m 848 182 l 848 216 l 825 216 b 723 312 802 216 768 248 l 667 391 b 766 584 733 448 766 513 b 597 793 766 701 692 792 l 355 793 l 355 745 l 385 745 b 410 663 401 745 410 718 l 410 298 b 385 216 410 243 401 216 l 355 216 l 355 182 l 570 182 l 570 216 l 534 216 b 509 298 517 216 509 243 l 509 406 b 566 378 528 387 547 378 l 617 309 b 664 231 648 270 664 244 b 644 216 664 221 657 216 l 613 216 l 613 182 z m 591 416 b 509 492 553 416 510 441 l 509 745 l 572 745 b 673 578 630 745 669 669 b 591 416 673 501 628 420 z m 568 28 b 243 163 441 28 333 73 b 109 488 153 253 109 361 b 243 812 109 614 153 722 b 568 947 333 902 441 947 b 892 812 694 947 802 902 b 1027 488 982 722 1027 614 b 892 163 1027 361 982 253 b 568 28 802 73 694 28 z m 568 -12 b 921 134 705 -12 823 37 b 1067 488 1019 232 1067 350 b 921 841 1067 625 1019 743 b 568 987 823 939 705 987 b 214 841 430 987 312 939 b 68 488 117 743 68 625 b 214 134 68 350 117 232 b 568 -12 312 37 430 -12 z "},"":{"ha":694,"x_min":0,"x_max":0,"o":"m 522 810 l 522 895 l 172 895 l 172 810 z "},"":{"ha":457,"x_min":0,"x_max":0,"o":"m 230 648 b 88 789 151 648 88 709 b 230 930 88 869 153 930 b 370 789 309 930 370 868 b 230 648 370 709 309 648 z m 229 601 b 418 789 334 601 418 686 b 230 978 418 893 336 978 b 41 789 124 978 41 895 b 229 601 41 685 121 601 z "},"":{"ha":688,"x_min":0,"x_max":0,"o":"m 391 188 l 391 439 l 629 439 l 629 533 l 628 534 l 391 534 l 391 785 l 297 785 l 296 784 l 296 534 l 59 534 l 59 439 l 296 439 l 296 188 z m 629 0 l 629 94 l 628 95 l 59 95 l 59 0 z "},"":{"ha":688,"x_min":0,"x_max":0,"o":""},"":{"ha":688,"x_min":0,"x_max":0,"o":""},"":{"ha":694,"x_min":0,"x_max":0,"o":"m 261 731 l 485 869 b 527 924 513 887 527 905 b 477 972 527 952 507 972 b 412 932 458 972 442 963 l 214 731 z "},"":{"ha":800,"x_min":0,"x_max":0,"o":""},"":{"ha":694,"x_min":0,"x_max":0,"o":"m 544 0 l 544 926 l 630 926 l 630 973 l 330 973 b 63 736 167 973 63 878 b 319 500 63 601 159 508 l 319 0 l 376 0 l 376 926 l 488 926 l 488 0 z "},"":{"ha":345,"x_min":0,"x_max":0,"o":"m 172 432 b 247 507 213 432 247 464 b 172 581 247 547 213 581 b 98 507 130 581 98 547 b 172 432 98 465 130 432 z "},"":{"ha":694,"x_min":0,"x_max":0,"o":"m 372 -283 b 521 -172 465 -283 521 -240 b 397 -67 521 -104 473 -67 b 355 -71 384 -68 370 -68 l 380 0 l 338 0 l 305 -119 b 328 -118 313 -119 321 -118 b 431 -172 389 -118 431 -134 b 347 -232 431 -214 404 -232 b 244 -197 317 -232 283 -220 l 244 -262 b 372 -283 280 -276 323 -283 z "},"":{"ha":688,"x_min":0,"x_max":0,"o":""},"":{"ha":1032,"x_min":0,"x_max":0,"o":""},"":{"ha":640,"x_min":0,"x_max":0,"o":"m 78 119 l 310 325 l 78 530 l 68 530 l 68 505 l 208 325 l 68 144 l 68 119 z m 290 119 l 522 325 l 290 530 l 281 530 l 281 505 l 420 325 l 281 144 l 281 119 z "},"":{"ha":1158,"x_min":0,"x_max":0,"o":""},"":{"ha":1607,"x_min":0,"x_max":0,"o":""},"":{"ha":1158,"x_min":0,"x_max":0,"o":""},"":{"ha":507,"x_min":0,"x_max":0,"o":""},"":{"ha":1044,"x_min":0,"x_max":0,"o":""},"":{"ha":1044,"x_min":0,"x_max":0,"o":""},"":{"ha":1044,"x_min":0,"x_max":0,"o":""},"":{"ha":1044,"x_min":0,"x_max":0,"o":""},"":{"ha":1044,"x_min":0,"x_max":0,"o":""},"":{"ha":1044,"x_min":0,"x_max":0,"o":""},"":{"ha":1417,"x_min":0,"x_max":0,"o":""},"":{"ha":949,"x_min":0,"x_max":0,"o":""},"":{"ha":781,"x_min":0,"x_max":0,"o":""},"":{"ha":781,"x_min":0,"x_max":0,"o":""},"":{"ha":781,"x_min":0,"x_max":0,"o":""},"":{"ha":781,"x_min":0,"x_max":0,"o":""},"":{"ha":446,"x_min":0,"x_max":0,"o":""},"":{"ha":446,"x_min":0,"x_max":0,"o":""},"":{"ha":446,"x_min":0,"x_max":0,"o":""},"":{"ha":446,"x_min":0,"x_max":0,"o":""},"":{"ha":1029,"x_min":0,"x_max":0,"o":""},"":{"ha":1054,"x_min":0,"x_max":0,"o":""},"":{"ha":1095,"x_min":0,"x_max":0,"o":""},"":{"ha":1095,"x_min":0,"x_max":0,"o":""},"":{"ha":1095,"x_min":0,"x_max":0,"o":""},"":{"ha":1095,"x_min":0,"x_max":0,"o":""},"":{"ha":1095,"x_min":0,"x_max":0,"o":""},"":{"ha":688,"x_min":0,"x_max":0,"o":"m 511 252 l 578 318 l 578 319 l 411 486 l 578 654 l 512 721 l 511 721 l 344 553 l 176 721 l 109 654 l 277 486 l 109 319 l 176 252 l 344 419 z "},"":{"ha":1095,"x_min":0,"x_max":0,"o":""},"":{"ha":1018,"x_min":0,"x_max":0,"o":""},"":{"ha":1018,"x_min":0,"x_max":0,"o":""},"":{"ha":1018,"x_min":0,"x_max":0,"o":""},"":{"ha":1018,"x_min":0,"x_max":0,"o":""},"":{"ha":836,"x_min":0,"x_max":0,"o":""},"":{"ha":760,"x_min":0,"x_max":0,"o":""},"":{"ha":848,"x_min":0,"x_max":0,"o":""},"":{"ha":625,"x_min":0,"x_max":0,"o":""},"":{"ha":625,"x_min":0,"x_max":0,"o":""},"":{"ha":625,"x_min":0,"x_max":0,"o":""},"":{"ha":625,"x_min":0,"x_max":0,"o":""},"":{"ha":625,"x_min":0,"x_max":0,"o":""},"":{"ha":625,"x_min":0,"x_max":0,"o":""},"":{"ha":984,"x_min":0,"x_max":0,"o":""},"":{"ha":614,"x_min":0,"x_max":0,"o":""},"":{"ha":616,"x_min":0,"x_max":0,"o":""},"":{"ha":616,"x_min":0,"x_max":0,"o":""},"":{"ha":616,"x_min":0,"x_max":0,"o":""},"":{"ha":616,"x_min":0,"x_max":0,"o":""},"":{"ha":349,"x_min":0,"x_max":0,"o":""},"":{"ha":349,"x_min":0,"x_max":0,"o":""},"":{"ha":349,"x_min":0,"x_max":0,"o":""},"":{"ha":349,"x_min":0,"x_max":0,"o":""},"":{"ha":772,"x_min":0,"x_max":0,"o":""},"":{"ha":751,"x_min":0,"x_max":0,"o":""},"":{"ha":685,"x_min":0,"x_max":0,"o":""},"":{"ha":685,"x_min":0,"x_max":0,"o":""},"":{"ha":685,"x_min":0,"x_max":0,"o":""},"":{"ha":685,"x_min":0,"x_max":0,"o":""},"":{"ha":685,"x_min":0,"x_max":0,"o":""},"":{"ha":688,"x_min":0,"x_max":0,"o":"m 629 439 l 629 533 l 628 534 l 59 534 l 59 439 z m 345 160 b 365 174 349 160 356 165 l 419 233 b 429 254 425 241 429 248 b 420 274 429 260 426 267 l 366 332 b 345 343 358 340 351 343 b 326 334 339 343 332 340 l 270 277 b 259 256 262 269 259 262 b 266 238 259 250 261 244 l 326 170 b 345 160 332 163 338 160 z m 345 630 b 365 644 349 630 356 635 l 419 703 b 429 724 425 711 429 718 b 420 744 429 730 426 736 l 366 802 b 345 813 358 810 351 813 b 326 804 339 813 332 810 l 270 747 b 259 726 262 739 259 732 b 266 708 259 720 261 714 l 326 640 b 345 630 332 633 338 630 z "},"":{"ha":685,"x_min":0,"x_max":0,"o":""},"":{"ha":718,"x_min":0,"x_max":0,"o":""},"":{"ha":718,"x_min":0,"x_max":0,"o":""},"":{"ha":718,"x_min":0,"x_max":0,"o":""},"":{"ha":718,"x_min":0,"x_max":0,"o":""},"":{"ha":589,"x_min":0,"x_max":0,"o":""},"":{"ha":685,"x_min":0,"x_max":0,"o":""},"":{"ha":589,"x_min":0,"x_max":0,"o":""},"":{"ha":349,"x_min":0,"x_max":0,"o":"m 321 0 l 321 34 l 290 34 b 222 151 245 34 222 73 l 222 650 l 190 650 b 13 526 172 599 113 557 l 13 496 l 45 496 b 121 444 96 496 121 479 l 121 151 b 53 34 121 73 98 34 l 22 34 l 22 0 z "},"":{"ha":0,"x_min":0,"x_max":0,"o":"m -17 732 l -214 934 b -279 974 -245 964 -261 974 b -330 926 -310 974 -330 954 b -288 870 -330 906 -315 888 l -64 732 z "},"":{"ha":0,"x_min":0,"x_max":0,"o":"m -283 732 l -59 870 b -17 926 -31 888 -17 906 b -67 974 -17 954 -37 974 b -132 934 -85 974 -102 964 l -330 732 z "},"":{"ha":0,"x_min":0,"x_max":0,"o":"m -28 733 l -186 974 l -266 974 l -423 733 l -384 733 l -226 880 l -68 733 z "},"":{"ha":0,"x_min":0,"x_max":0,"o":"m -161 789 b -26 918 -83 789 -43 854 l -62 918 b -122 880 -75 892 -95 880 b -205 899 -149 880 -176 886 b -288 918 -235 911 -263 918 b -415 789 -354 918 -398 855 l -378 789 b -321 831 -367 817 -348 831 b -238 810 -295 831 -267 824 b -161 789 -209 795 -183 789 z "},"":{"ha":0,"x_min":0,"x_max":0,"o":"m -7 810 l -7 895 l -357 895 l -357 810 z "},"":{"ha":0,"x_min":0,"x_max":0,"o":"m -189 774 b -125 837 -178 774 -161 798 b -117 855 -119 842 -118 847 b -123 871 -117 863 -119 868 l -172 923 b -189 931 -177 928 -183 931 b -207 923 -195 931 -201 928 l -254 874 b -263 857 -261 868 -263 862 b -258 841 -263 849 -261 844 l -207 782 b -189 774 -203 777 -197 774 z "},"":{"ha":0,"x_min":0,"x_max":0,"o":"m -334 774 b -317 786 -331 774 -325 779 l -271 837 b -262 855 -265 843 -262 849 b -269 872 -262 860 -264 866 l -316 922 b -334 931 -323 928 -330 931 b -351 923 -340 931 -345 928 l -399 874 b -409 857 -406 868 -409 863 b -403 841 -409 852 -407 846 l -351 783 b -334 774 -347 777 -340 774 z m -87 774 b -70 786 -83 774 -77 779 l -23 838 b -15 855 -18 844 -15 849 b -22 872 -15 860 -17 866 l -68 922 b -87 931 -76 928 -82 931 b -104 923 -92 931 -98 928 l -152 874 b -161 857 -158 868 -161 863 b -155 842 -161 852 -159 846 l -104 783 b -87 774 -99 777 -93 774 z "},"":{"ha":0,"x_min":0,"x_max":0,"o":"m -170 785 b -237 853 -208 785 -237 815 b -170 920 -237 889 -208 920 b -102 853 -132 920 -102 889 b -170 785 -102 815 -132 785 z m -170 732 b -48 853 -100 732 -48 785 b -170 973 -48 920 -100 973 b -289 853 -236 973 -289 922 b -170 732 -289 785 -237 732 z "},"":{"ha":0,"x_min":0,"x_max":0,"o":"m -186 732 l -28 974 l -68 974 l -226 829 l -384 974 l -423 974 l -266 732 z "},"":{"ha":0,"x_min":0,"x_max":0,"o":"m -191 -283 b -43 -172 -98 -283 -43 -240 b -166 -67 -43 -104 -90 -67 b -208 -71 -180 -68 -194 -68 l -183 0 l -226 0 l -258 -119 b -235 -118 -250 -119 -243 -118 b -133 -172 -175 -118 -133 -134 b -216 -232 -133 -214 -159 -232 b -319 -197 -247 -232 -281 -220 l -319 -262 b -191 -283 -283 -276 -241 -283 z "},"":{"ha":751,"x_min":0,"x_max":0,"o":"m 713 284 l 713 366 l 38 366 l 38 284 z "},"":{"ha":1389,"x_min":0,"x_max":0,"o":"m 1389 284 l 1389 366 l 0 366 l 0 284 z "},"":{"ha":378,"x_min":0,"x_max":0,"o":"m 216 689 l 297 774 l 297 802 b 210 911 239 821 210 858 b 269 1040 216 978 235 1021 l 269 1069 b 126 836 205 1069 126 934 b 216 689 126 756 177 689 z "},"":{"ha":378,"x_min":0,"x_max":0,"o":"m 109 689 b 252 922 173 689 252 825 b 161 1069 252 1002 201 1069 l 81 985 l 81 956 b 168 847 139 937 168 901 b 109 718 162 781 142 738 z "},"":{"ha":378,"x_min":0,"x_max":0,"o":"m 109 -190 b 252 43 173 -190 252 -54 b 161 191 252 123 201 191 l 81 106 l 81 77 b 168 -32 139 58 168 22 b 109 -161 162 -98 142 -141 z "},"":{"ha":617,"x_min":0,"x_max":0,"o":"m 216 689 l 297 774 l 297 802 b 210 911 239 821 210 858 b 269 1040 216 978 235 1021 l 269 1069 b 126 836 205 1069 126 934 b 216 689 126 756 177 689 z m 456 689 l 536 774 l 536 802 b 449 911 478 821 449 858 b 508 1040 455 978 475 1021 l 508 1069 b 366 836 444 1069 366 934 b 456 689 366 756 416 689 z "},"":{"ha":617,"x_min":0,"x_max":0,"o":"m 109 689 b 252 922 173 689 252 825 b 161 1069 252 1002 201 1069 l 81 985 l 81 956 b 168 847 139 937 168 901 b 109 718 162 781 142 738 z m 349 689 b 491 922 412 689 491 825 b 401 1069 491 1002 440 1069 l 320 985 l 320 956 b 408 847 378 937 408 901 b 349 718 401 781 382 738 z "},"":{"ha":617,"x_min":0,"x_max":0,"o":"m 109 -190 b 252 43 173 -190 252 -54 b 161 191 252 123 201 191 l 81 106 l 81 77 b 168 -32 139 58 168 22 b 109 -161 162 -98 142 -141 z m 349 -190 b 491 43 412 -190 491 -54 b 401 191 491 123 440 191 l 320 106 l 320 77 b 408 -32 378 58 408 22 b 349 -161 401 -98 382 -141 z "},"":{"ha":688,"x_min":0,"x_max":0,"o":"m 357 -183 b 433 477 360 50 385 269 b 359 665 387 523 362 586 b 480 627 401 661 441 648 b 572 589 527 602 558 589 b 640 679 614 589 640 629 b 566 768 640 734 610 768 b 479 730 553 768 524 755 b 359 693 442 709 402 696 b 396 814 363 736 375 776 b 433 907 421 862 433 893 b 344 975 433 949 394 975 b 254 901 291 975 254 947 b 293 814 254 888 267 859 b 330 693 314 777 326 737 b 208 730 287 697 247 709 b 115 768 161 755 130 768 b 48 679 74 768 48 729 b 121 589 48 626 76 589 b 209 628 134 589 163 602 b 330 665 246 648 286 661 b 254 477 326 586 300 523 b 332 -183 303 269 329 50 z "},"":{"ha":688,"x_min":0,"x_max":0,"o":"m 343 -183 b 433 -116 393 -183 433 -157 b 395 -23 433 -102 420 -71 b 358 98 374 16 362 56 b 478 62 401 95 441 83 b 566 23 524 36 553 23 b 640 113 610 23 640 58 b 572 202 640 162 614 202 b 479 165 557 202 526 190 b 358 126 441 144 401 131 b 433 396 361 229 387 318 b 358 665 387 473 361 563 b 479 627 401 661 441 648 b 572 589 526 602 557 589 b 640 679 614 589 640 629 b 566 768 640 734 610 768 b 478 730 553 768 524 755 b 358 693 441 709 401 696 b 395 814 362 736 374 776 b 433 907 420 862 433 893 b 343 975 433 949 393 975 b 254 901 290 975 254 947 b 292 814 254 888 267 859 b 329 693 313 777 326 737 b 208 730 286 697 246 709 b 115 768 160 755 129 768 b 47 679 73 768 47 729 b 121 589 47 626 75 589 b 208 628 134 589 163 602 b 329 665 245 648 286 661 b 254 396 325 563 300 473 b 329 126 300 318 325 229 b 208 163 286 131 245 143 b 121 202 163 189 134 202 b 47 113 75 202 47 165 b 115 23 47 62 73 23 b 208 61 129 23 160 36 b 329 98 246 82 286 94 b 292 -22 326 54 313 14 b 254 -110 267 -68 254 -97 b 343 -183 254 -155 290 -183 z "},"":{"ha":694,"x_min":0,"x_max":0,"o":"m 347 286 b 548 487 456 286 548 375 b 348 687 548 597 459 687 b 146 487 237 687 146 600 b 347 286 146 376 233 286 z "},"":{"ha":1389,"x_min":0,"x_max":0,"o":"m 174 -3 b 193 10 178 -3 184 1 l 248 70 b 257 91 254 77 257 84 b 249 111 257 97 254 103 l 195 169 b 174 180 186 176 180 180 b 154 170 168 180 161 176 l 98 113 b 87 92 91 106 87 99 b 94 75 87 86 90 81 l 154 6 b 174 -3 160 0 166 -3 z m 637 -3 b 656 10 641 -3 648 1 l 711 70 b 720 91 717 77 720 84 b 712 111 720 97 718 103 l 658 169 b 637 180 650 176 643 180 b 617 170 631 180 624 176 l 562 113 b 551 92 554 106 551 99 b 557 75 551 86 553 81 l 617 6 b 637 -3 623 0 629 -3 z m 1100 -3 b 1120 10 1104 -3 1111 1 l 1174 70 b 1183 91 1180 77 1183 84 b 1175 111 1183 97 1181 103 l 1121 169 b 1100 180 1113 176 1106 180 b 1080 170 1094 180 1087 176 l 1025 113 b 1014 92 1017 106 1014 99 b 1021 75 1014 86 1016 81 l 1080 6 b 1100 -3 1086 0 1093 -3 z "},"":{"ha":428,"x_min":0,"x_max":0,"o":"m 359 119 l 359 144 l 220 325 l 359 505 l 359 530 l 350 530 l 118 325 l 350 119 z "},"":{"ha":428,"x_min":0,"x_max":0,"o":"m 78 119 l 310 325 l 78 530 l 68 530 l 68 505 l 208 325 l 68 144 l 68 119 z "},"":{"ha":232,"x_min":0,"x_max":0,"o":"m -174 -20 l 463 971 l 406 971 l -232 -20 z "},"":{"ha":688,"x_min":0,"x_max":0,"o":"m 412 0 l 412 34 l 347 34 b 277 193 300 34 277 87 l 277 242 l 409 242 l 409 283 l 277 283 l 277 473 l 522 473 b 590 431 568 473 590 459 l 590 391 l 624 391 l 624 623 l 590 623 l 590 583 b 522 541 590 555 568 541 l 277 541 l 277 779 b 347 939 277 886 300 939 l 561 939 b 690 816 620 939 663 898 l 723 816 l 653 972 l 33 972 l 33 939 l 98 939 b 168 779 144 939 168 886 l 168 283 l 36 283 l 36 242 l 168 242 l 168 193 b 98 34 168 87 144 34 l 33 34 l 33 0 z "},"":{"ha":688,"x_min":0,"x_max":0,"o":"m 565 0 l 635 157 l 602 157 b 473 68 575 98 532 68 l 201 68 b 311 322 274 165 311 250 b 287 416 311 356 302 387 l 505 416 l 505 456 l 266 456 b 248 497 260 470 254 484 l 492 497 l 492 538 l 235 538 b 212 703 220 586 212 641 b 397 935 212 842 310 935 b 573 844 509 935 569 898 l 599 844 l 599 954 b 398 986 599 972 469 986 b 104 669 236 986 104 882 b 128 538 104 630 112 586 l 52 538 l 52 497 l 143 497 l 161 456 l 64 456 l 64 416 l 180 416 l 182 414 b 205 317 197 385 205 352 b 78 34 205 236 163 142 l 77 0 z "},"":{"ha":1375,"x_min":0,"x_max":0,"o":"m 434 345 b 282 478 378 345 317 390 l 277 490 l 277 939 l 409 939 l 423 939 b 499 916 448 939 474 931 b 607 637 568 872 607 752 b 434 345 607 490 541 345 z m 1124 28 b 956 176 1057 28 1006 57 l 923 176 l 971 45 b 893 151 919 52 893 83 l 893 616 l 1015 616 l 1014 615 b 964 484 981 582 964 538 b 1091 309 964 404 1003 355 b 1267 156 1208 253 1267 202 b 1124 28 1267 81 1208 28 z m 1123 -13 b 1278 45 1180 -12 1232 7 b 1334 202 1315 87 1334 139 b 1190 386 1334 287 1295 338 b 1030 535 1083 437 1030 486 b 1126 625 1030 589 1067 625 b 1261 524 1190 625 1257 585 l 1289 524 l 1289 631 b 1145 663 1289 650 1196 663 b 1069 650 1113 663 1087 658 l 893 650 l 893 890 l 859 890 b 706 650 859 720 808 650 b 671 810 705 706 694 760 b 452 972 623 916 535 970 l 33 972 l 33 939 l 98 939 b 168 779 144 939 168 886 l 168 193 b 98 34 168 87 144 34 l 33 34 l 33 0 l 412 0 l 412 34 l 347 34 b 277 193 300 34 277 87 l 277 400 b 448 322 323 351 389 322 b 576 366 492 322 535 336 b 705 617 655 420 698 519 l 792 617 l 792 151 l 793 151 b 949 -7 800 39 843 -7 b 1014 -1 973 -7 993 -1 b 1123 -13 1046 -1 1079 -13 z "},"":{"ha":688,"x_min":0,"x_max":0,"o":"m 467 0 b 703 124 585 2 703 59 l 703 221 l 671 221 b 622 97 671 178 654 137 b 467 34 589 56 538 35 b 241 161 380 35 304 77 b 134 443 177 246 141 340 l 576 443 l 587 484 l 130 484 b 129 524 130 497 129 511 l 598 524 l 610 565 l 131 565 b 228 852 134 677 166 772 b 440 972 290 932 360 972 b 556 937 472 972 511 960 b 657 817 602 913 635 873 l 684 817 l 627 1008 l 600 1008 b 581 977 593 987 587 977 b 451 1006 568 977 509 1006 b 160 862 328 1006 231 958 b 44 565 89 766 50 667 l 5 565 l -7 524 l 41 524 l 41 503 l 41 484 l -18 484 l -30 443 l 43 443 b 168 138 50 332 92 230 b 467 0 245 46 345 0 z "},"":{"ha":1540,"x_min":0,"x_max":0,"o":""},"":{"ha":1015,"x_min":0,"x_max":0,"o":""},"":{"ha":688,"x_min":0,"x_max":0,"o":"m 370 7 b 157 364 269 7 157 165 b 168 471 157 397 161 433 b 309 639 191 578 250 635 b 404 605 342 639 368 633 b 530 278 476 547 530 412 b 465 56 530 189 507 103 b 370 7 435 21 399 7 z m 344 -17 b 490 28 395 -17 443 -2 b 635 323 587 90 635 209 b 494 796 635 510 588 667 b 144 989 399 925 283 989 l 144 952 b 524 591 307 940 449 802 b 344 663 473 638 404 663 b 201 619 295 663 248 648 b 52 323 103 557 52 437 b 91 153 52 264 65 207 b 344 -17 144 41 247 -17 z "},"":{"ha":733,"x_min":0,"x_max":0,"o":"m 616 83 l 73 83 l 349 810 z m 728 0 l 371 972 l 4 0 z "},"":{"ha":1027,"x_min":0,"x_max":0,"o":"m 412 -283 l 412 -249 l 347 -249 b 277 -90 300 -249 277 -196 l 277 779 b 347 939 277 886 300 939 l 680 939 b 750 779 727 939 750 886 l 750 -90 b 680 -249 750 -196 727 -249 l 615 -249 l 615 -283 l 995 -283 l 995 -249 l 929 -249 b 860 -90 883 -249 860 -196 l 860 779 b 929 939 860 886 883 939 l 995 939 l 995 972 l 33 972 l 33 939 l 98 939 b 168 779 144 939 168 886 l 168 -90 b 98 -249 168 -196 144 -249 l 33 -249 l 33 -283 z "},"":{"ha":818,"x_min":0,"x_max":0,"o":"m 706 -282 l 776 -125 l 743 -125 b 614 -248 716 -207 673 -248 l 184 -248 l 718 372 l 286 939 l 614 939 b 743 815 673 939 716 897 l 776 815 l 706 972 l 81 972 l 81 939 b 153 900 109 939 134 926 l 603 317 l 153 -212 b 81 -248 134 -236 109 -248 l 81 -282 z "},"":{"ha":688,"x_min":0,"x_max":0,"o":"m 629 439 l 629 533 l 628 534 l 59 534 l 59 439 z "},"":{"ha":688,"x_min":0,"x_max":0,"o":"m 123 0 l 666 1098 l 715 1098 l 715 1139 l 613 1139 l 119 142 l 62 267 l 12 243 z "},"":{"ha":688,"x_min":0,"x_max":0,"o":"m 471 239 b 645 486 556 239 645 340 b 471 734 645 629 567 734 b 305 561 389 734 321 655 b 180 692 281 648 239 692 b 45 486 103 692 45 598 b 180 280 45 356 109 280 b 305 412 235 280 277 324 b 378 279 322 350 346 305 b 471 239 410 252 440 239 z m 463 330 b 376 366 439 330 410 342 b 316 466 341 389 321 422 b 389 608 330 536 355 583 b 494 644 422 632 457 644 b 632 508 574 644 630 591 b 575 384 632 461 613 420 b 463 330 537 348 500 330 z m 163 355 b 54 467 95 355 56 410 b 191 617 54 541 113 617 b 298 512 243 617 284 587 b 242 385 283 448 264 406 b 163 355 219 365 193 355 z "},"":{"ha":451,"x_min":0,"x_max":0,"o":"m -8 -191 b 151 -62 48 -191 101 -148 b 239 222 201 23 231 118 l 289 743 b 401 1095 292 929 335 1095 b 467 1036 428 1095 467 1076 l 492 1036 l 492 1144 b 451 1164 492 1157 478 1164 b 292 1034 394 1164 341 1120 b 201 743 243 947 213 850 l 195 701 l 148 203 b 121 -12 144 133 135 62 b 43 -121 106 -85 80 -121 b -24 -63 14 -121 -24 -103 l -49 -63 l -49 -171 b -8 -191 -49 -184 -35 -191 z "},"":{"ha":688,"x_min":0,"x_max":0,"o":"m 64 496 b 224 591 127 568 176 591 b 345 558 251 591 291 580 b 465 525 397 536 437 525 b 626 608 517 525 570 545 l 626 714 b 465 619 563 642 513 619 b 348 653 439 619 401 631 b 224 686 294 675 254 686 b 64 602 174 686 120 666 z m 64 260 b 224 355 127 332 176 355 b 345 322 251 355 291 344 b 465 289 397 300 437 289 b 626 372 517 289 570 309 l 626 478 b 465 383 563 406 513 383 b 348 417 439 383 401 395 b 224 450 294 439 254 450 b 64 366 174 450 120 430 z "},"":{"ha":688,"x_min":0,"x_max":0,"o":"m 629 142 l 629 256 l 205 496 l 629 740 l 629 853 l 59 525 l 59 469 z m 629 0 l 629 94 l 628 95 l 59 95 l 59 0 z "},"":{"ha":688,"x_min":0,"x_max":0,"o":"m 59 142 l 629 469 l 629 525 l 59 853 l 59 740 l 483 496 l 59 256 z m 629 0 l 629 94 l 628 95 l 59 95 l 59 0 z "},"":{"ha":728,"x_min":0,"x_max":0,"o":""},"":{"ha":733,"x_min":0,"x_max":0,"o":""}}}
